<svg width="38" height="38" viewBox="0 0 38 38" fill="none" xmlns="http://www.w3.org/2000/svg">
<path d="M3.55559 8.31189C2.25008 8.31189 1.18054 9.38149 1.18054 10.687V15.4371C1.18056 15.5945 1.24312 15.7455 1.35447 15.8569C1.46582 15.9682 1.61683 16.0308 1.7743 16.0308C3.42096 16.0308 4.74311 17.353 4.74311 18.9996C4.74311 20.6463 3.42096 21.9684 1.7743 21.9684C1.61683 21.9684 1.46582 22.031 1.35447 22.1424C1.24312 22.2537 1.18056 22.4047 1.18054 22.5622V27.3123C1.18054 28.6178 2.25008 29.6873 3.55559 29.6873H34.4312C35.7367 29.6873 36.8062 28.6178 36.8062 27.3123V22.5622C36.8062 22.4047 36.7437 22.2537 36.6323 22.1424C36.521 22.031 36.3699 21.9684 36.2125 21.9684C34.5658 21.9684 33.2437 20.6463 33.2437 18.9996C33.2437 17.353 34.5658 16.0308 36.2125 16.0308C36.3699 16.0308 36.521 15.9682 36.6323 15.8569C36.7437 15.7455 36.8062 15.5945 36.8062 15.4371V10.687C36.8062 9.38149 35.7367 8.31189 34.4312 8.31189H3.55559Z" fill="white"/>
<path d="M17.7178 11.092L16.6285 12.2432L15.061 12.0219C14.7745 11.9813 14.5005 12.1532 14.4123 12.4288L13.9323 13.9381L12.4229 14.4181C12.1473 14.5063 11.9755 14.7803 12.016 15.0668L12.2373 16.6361L11.0861 17.7236C10.8756 17.9224 10.8391 18.2439 10.9998 18.4848L11.8792 19.801L11.3148 21.2803C11.2113 21.551 11.3182 21.8568 11.5679 22.004L12.9329 22.8083L13.066 24.3852C13.0904 24.6737 13.3193 24.9027 13.6079 24.927L15.1848 25.0601L15.9891 26.425C16.1363 26.6747 16.4422 26.7817 16.7129 26.6781L18.1922 26.1137L19.5085 26.9931C19.7493 27.1538 20.0709 27.1172 20.2697 26.9069L21.3572 25.7558L22.9265 25.977C23.2124 26.0165 23.4853 25.8448 23.5734 25.5702L24.0553 24.0608L25.5646 23.5809C25.8402 23.4927 26.012 23.2186 25.9715 22.9321L25.7502 21.3647L26.9015 20.2754C27.1114 20.0761 27.147 19.7546 26.9859 19.5142L26.1065 18.198L26.6709 16.7187C26.7744 16.448 26.6675 16.1421 26.4177 15.995L25.0546 15.1906L24.9215 13.6138C24.8972 13.3252 24.6682 13.0963 24.3796 13.0719L22.8028 12.9389L21.9966 11.574C21.849 11.3259 21.5444 11.2199 21.2747 11.3227L19.7953 11.8871L18.4791 11.0059C18.3792 10.9394 18.2615 10.9049 18.1416 10.9064C17.981 10.9086 17.8282 10.9753 17.7178 11.092Z" fill="#FF9166"/>
<path d="M21.0739 16.1042C20.9868 16.1027 20.9004 16.1203 20.8208 16.1559C20.7413 16.1915 20.6706 16.2442 20.6137 16.3102L16.5111 20.8905C16.4059 21.0079 16.3517 21.1623 16.3603 21.3197C16.3689 21.4771 16.4397 21.6247 16.5571 21.7299C16.6745 21.8351 16.8289 21.8893 16.9863 21.8807C17.1438 21.8721 17.2913 21.8013 17.3965 21.6839L21.4991 17.1035C21.5776 17.0195 21.6301 16.9144 21.6501 16.8012C21.6701 16.6879 21.6568 16.5713 21.6117 16.4655C21.5667 16.3596 21.4919 16.2691 21.3964 16.205C21.301 16.1409 21.1889 16.1059 21.0739 16.1042ZM15.7716 15.3739C15.1358 16.053 15.1643 17.1432 15.8383 17.7845C16.5123 18.4257 17.5969 18.3943 18.2327 17.7151C18.8685 17.036 18.8338 15.9459 18.1598 15.3047C17.4858 14.6635 16.4074 14.6947 15.7716 15.3739ZM19.7553 20.283C19.1195 20.9621 19.1542 22.0522 19.8282 22.6934C20.5022 23.3346 21.5806 23.3034 22.2164 22.6243C22.8522 21.9452 22.8208 20.8581 22.1467 20.2168C21.4727 19.5756 20.3911 19.6038 19.7553 20.283Z" fill="#D9F1FB"/>
</svg>
