<svg width="293" height="293" viewBox="0 0 293 293" fill="none" xmlns="http://www.w3.org/2000/svg">
<path d="M125.228 129.135C128.434 116.018 124.9 101.592 114.633 91.3677L78.839 55.7169L43.9016 90.7948C33.4811 101.258 29.8977 115.949 33.1368 129.321C22.6562 129.342 14.1768 137.855 14.1973 148.336L14.5284 275.955L144.6 275.693L144.269 148.076C144.248 137.594 135.735 129.115 125.253 129.135H125.228Z" fill="#DCE7EA"/>
<path d="M170.233 173.071H157.609V196.667H170.233V173.071Z" fill="white"/>
<path d="M170.234 197.253H157.609C157.285 197.253 157.023 196.991 157.023 196.667V173.071C157.023 172.747 157.285 172.485 157.609 172.485H170.234C170.558 172.485 170.82 172.747 170.82 173.071V196.667C170.82 196.991 170.558 197.253 170.234 197.253ZM158.195 196.081H169.648V173.657H158.195V196.081Z" fill="#292C56"/>
<path d="M175.513 167.524C175.262 165.571 174.246 163.797 172.693 162.586C171.185 161.409 169.026 160.186 166.314 159.849C165.076 159.695 162.343 159.37 159.477 160.917C159.33 160.996 156.535 162.546 155.179 165.33C154.656 166.403 154.383 167.602 154.338 168.863C153.191 168.853 152.164 169.326 151.641 170.233C150.779 171.724 151.608 173.813 153.492 174.9C154.328 175.382 155.229 175.585 156.049 175.533C156.568 176.497 157.193 177.445 157.934 178.354C158.904 179.542 160.1 180.523 161.431 181.281C163.696 182.568 167.605 184.312 171.389 183.702C176.697 182.848 176.619 176.114 175.514 167.523L175.513 167.524Z" fill="white"/>
<path d="M169.761 184.419C166.503 184.419 163.35 183.05 161.141 181.793C159.707 180.977 158.475 179.946 157.48 178.727C156.817 177.914 156.22 177.041 155.706 176.128C154.856 176.111 153.98 175.862 153.199 175.41C152.174 174.818 151.392 173.939 150.993 172.936C150.577 171.884 150.627 170.822 151.134 169.941C151.66 169.032 152.628 168.444 153.787 168.309C153.888 167.137 154.178 166.05 154.654 165.075C156.106 162.098 159.076 160.47 159.202 160.403C162.252 158.756 165.151 159.115 166.387 159.269C168.761 159.563 171.004 160.524 173.056 162.126C174.744 163.443 175.823 165.333 176.096 167.451C177.121 175.428 177.609 183.298 171.483 184.285C170.91 184.378 170.334 184.42 169.763 184.42L169.761 184.419ZM156.047 174.949C156.261 174.949 156.461 175.066 156.563 175.258C157.08 176.22 157.694 177.138 158.387 177.986C159.291 179.092 160.412 180.031 161.72 180.775C163.712 181.908 167.605 183.72 171.294 183.128C175.889 182.388 176.093 176.638 174.931 167.602C174.698 165.793 173.775 164.177 172.332 163.05C170.45 161.582 168.4 160.7 166.241 160.434C165.113 160.293 162.476 159.968 159.755 161.436C159.727 161.45 156.994 162.948 155.706 165.59C155.23 166.566 154.968 167.675 154.924 168.89C154.912 169.205 154.654 169.455 154.338 169.455C154.325 169.455 154.314 169.455 154.304 169.455C153.343 169.455 152.539 169.856 152.149 170.532C151.824 171.094 151.8 171.796 152.083 172.508C152.385 173.268 152.988 173.939 153.785 174.399C154.487 174.805 155.28 175.002 156.012 174.955C156.025 174.955 156.037 174.955 156.049 174.955L156.047 174.949Z" fill="#292C56"/>
<path d="M161.43 181.284C161.43 181.284 165.044 187.681 170.233 187.387V183.831C170.233 183.831 164.927 184.212 161.43 181.285V181.284Z" fill="#292C56"/>
<path d="M163.708 191.629C163.708 191.629 115.367 190.424 113.656 203.969C111.998 217.098 129.138 275.955 129.138 275.955H217.466C217.466 275.955 221.099 207.927 217.257 199.265C213.333 190.425 163.708 191.629 163.708 191.629Z" fill="#60AFBD"/>
<path d="M157.545 191.782C151.058 191.407 143.695 190.478 135.74 188.575C116.103 183.877 101.233 175.239 91.4966 168.293C103.559 153.188 115.621 138.084 127.684 122.978C116.845 116.645 106.007 110.31 95.1693 103.977C91.5332 107.551 86.4892 112.745 80.8709 119.349C60.8737 142.858 46.7906 159.415 49.2577 176.796C51.0948 189.729 61.322 197.952 78.1211 211.278C93.3805 223.382 108.096 230.096 117.925 233.807C131.132 219.798 144.338 205.79 157.545 191.783V191.782ZM170.234 191.782C176.714 191.421 184.082 190.498 192.04 188.575C212.331 183.671 227.498 174.439 237.194 167.212C224.828 152.468 212.463 137.723 200.097 122.979C210.935 116.646 221.773 110.312 232.611 103.978C236.246 107.553 241.291 112.746 246.91 119.351C266.907 142.859 280.991 159.417 278.523 176.798C276.686 189.731 266.459 197.954 249.659 211.279C234.4 223.383 219.684 230.097 209.855 233.808C196.648 219.8 183.443 205.791 170.236 191.785L170.234 191.782Z" fill="#60AFBD"/>
<path d="M235.096 59.293C235.096 50.9278 241.877 44.1463 250.242 44.1463V22.227C250.242 19.6896 248.186 17.6328 245.648 17.6328H88.4918C85.9544 17.6328 83.8976 19.6896 83.8976 22.227V44.1463C92.2627 44.1463 99.0442 50.9278 99.0442 59.293C99.0442 67.6581 92.2627 74.4396 83.8976 74.4396V96.3589C83.8976 98.8963 85.9544 100.953 88.4918 100.953H245.648C248.186 100.953 250.242 98.8963 250.242 96.3589V74.4396C241.877 74.4396 235.096 67.6581 235.096 59.293Z" fill="white"/>
<path d="M245.65 101.539H88.4919C85.6351 101.539 83.3116 99.2157 83.3116 96.3589V74.4396C83.3116 74.1158 83.5739 73.8536 83.8976 73.8536C91.9258 73.8536 98.4583 67.3212 98.4583 59.293C98.4583 51.2648 91.9258 44.7323 83.8976 44.7323C83.5739 44.7323 83.3116 44.4701 83.3116 44.1463V22.227C83.3116 19.3702 85.6351 17.0468 88.4919 17.0468H245.65C248.507 17.0468 250.83 19.3702 250.83 22.227V44.1463C250.83 44.4701 250.568 44.7323 250.244 44.7323C242.216 44.7323 235.683 51.2648 235.683 59.293C235.683 67.3212 242.216 73.8536 250.244 73.8536C250.568 73.8536 250.83 74.1158 250.83 74.4396V96.3589C250.83 99.2157 248.507 101.539 245.65 101.539ZM84.4836 75.0139V96.3589C84.4836 98.5696 86.2812 100.367 88.4919 100.367H245.65C247.859 100.367 249.658 98.5696 249.658 96.3589V75.0139C241.253 74.7048 234.511 67.7709 234.511 59.2915C234.511 50.8121 241.253 43.8797 249.658 43.5691V22.2241C249.658 20.0134 247.86 18.2158 245.65 18.2158H88.4919C86.2827 18.2158 84.4836 20.0134 84.4836 22.2241V43.5691C92.8884 43.8782 99.6303 50.8121 99.6303 59.2915C99.6303 67.7709 92.8884 74.7033 84.4836 75.0139Z" fill="#292C56"/>
<path d="M214.833 27.2388C214.51 27.2388 214.247 26.9765 214.247 26.6528V23.1368C214.247 22.813 214.51 22.5508 214.833 22.5508C215.157 22.5508 215.419 22.813 215.419 23.1368V26.6528C215.419 26.9765 215.157 27.2388 214.833 27.2388ZM214.833 85.4227C214.51 85.4227 214.247 85.1605 214.247 84.8367V77.5644C214.247 77.2407 214.51 76.9784 214.833 76.9784C215.157 76.9784 215.419 77.2407 215.419 77.5644V84.8367C215.419 85.1605 215.157 85.4227 214.833 85.4227ZM214.833 70.8767C214.51 70.8767 214.247 70.6145 214.247 70.2907V63.0184C214.247 62.6947 214.51 62.4324 214.833 62.4324C215.157 62.4324 215.419 62.6947 215.419 63.0184V70.2907C215.419 70.6145 215.157 70.8767 214.833 70.8767ZM214.833 56.3307C214.51 56.3307 214.247 56.0685 214.247 55.7447V48.4725C214.247 48.1487 214.51 47.8865 214.833 47.8865C215.157 47.8865 215.419 48.1487 215.419 48.4725V55.7447C215.419 56.0685 215.157 56.3307 214.833 56.3307ZM214.833 41.7847C214.51 41.7847 214.247 41.5225 214.247 41.1987V33.9265C214.247 33.6027 214.51 33.3405 214.833 33.3405C215.157 33.3405 215.419 33.6027 215.419 33.9265V41.1987C215.419 41.5225 215.157 41.7847 214.833 41.7847ZM214.833 96.2124C214.51 96.2124 214.247 95.9502 214.247 95.6264V92.1104C214.247 91.7867 214.51 91.5244 214.833 91.5244C215.157 91.5244 215.419 91.7867 215.419 92.1104V95.6264C215.419 95.9502 215.157 96.2124 214.833 96.2124ZM183.638 214.998C189.397 191.345 179.736 168.072 179.397 167.269C177.431 160.898 173.377 155.064 166.957 155.042C165.867 155.038 164.859 155.149 163.916 155.343L163.92 155.334C163.92 155.334 151.945 156.395 150.007 166.493C148.747 173.056 150.877 178.85 152.523 182.102C149.496 183.217 148.869 185.538 150.097 186.959C152.395 189.618 145.286 189.394 151.298 195.163C155.51 199.206 163.583 199.507 169.468 197.82C168.261 204.41 165.171 215.282 157.309 224.735C151.178 232.106 151.252 240.355 152.86 246.763C154.064 251.564 155.92 255.347 157.608 257.735C160.709 258.643 168.242 260.389 177.145 257.735C188.663 254.301 194.615 245.845 196.213 243.4C191.48 237.72 177.775 239.072 183.636 214.999L183.638 214.998ZM161.717 182.057C159.284 179.241 156.481 174.257 157.542 166.89C160.302 163.914 166.5 159.395 174.713 166.491C174.713 166.491 180.573 188.178 166.282 183.33C164.625 182.768 163.109 182.354 161.717 182.057ZM178.73 183.299C178.855 183.166 178.986 183.033 179.13 182.899L178.73 183.299Z" fill="#292C56"/>
<path d="M170.234 197.253H170.217C169.893 197.243 169.638 196.974 169.648 196.65C169.656 196.402 169.883 190.512 174.083 184.531C177.99 178.969 176.077 173.63 176.058 173.578C175.945 173.274 176.099 172.937 176.402 172.825C176.704 172.712 177.041 172.864 177.155 173.166C177.246 173.406 179.319 179.118 175.043 185.207C171.042 190.903 170.823 196.629 170.82 196.687C170.81 197.004 170.551 197.255 170.234 197.255V197.253ZM102.075 108.014L107.002 104.462L104.538 100.953H121.788C121.788 100.953 126.236 97.55 132.607 97.3683C132.607 97.3683 141.623 90.4564 144.269 91.7178C146.913 92.9806 135.373 104.16 132.127 106.384C128.88 108.608 119.594 118.252 119.594 118.252L102.075 108.013V108.014Z" fill="white"/>
<path d="M119.594 118.838C119.493 118.838 119.39 118.811 119.298 118.757L101.779 108.52C101.608 108.42 101.5 108.24 101.489 108.042C101.481 107.845 101.571 107.656 101.733 107.538L106.191 104.323L104.059 101.289C103.933 101.11 103.918 100.876 104.018 100.682C104.119 100.489 104.32 100.366 104.538 100.366H121.596C122.47 99.7431 126.623 97.0079 132.401 96.7881C134.254 95.3803 141.778 89.8821 144.521 91.1889C144.947 91.3926 145.202 91.772 145.24 92.2569C145.483 95.3832 135.133 105.035 132.458 106.867C129.298 109.033 120.108 118.562 120.016 118.658C119.901 118.775 119.749 118.838 119.594 118.838ZM103.148 107.963L119.491 117.515C121.18 115.772 128.841 107.925 131.794 105.902C135.183 103.581 144.235 94.4647 144.07 92.3507C144.064 92.273 144.052 92.2672 144.014 92.2496C142.413 91.4907 136.588 95.0565 132.962 97.8356C132.864 97.9103 132.745 97.9528 132.622 97.9558C126.529 98.1286 122.185 101.387 122.141 101.419C122.039 101.497 121.914 101.539 121.785 101.539H105.663L107.478 104.123C107.663 104.386 107.601 104.749 107.342 104.936L103.145 107.963H103.148Z" fill="#292C56"/>
<path d="M224.519 108.014L219.592 104.462L222.056 100.953H204.806C204.806 100.953 200.358 97.55 193.987 97.3683C193.987 97.3683 184.971 90.4564 182.325 91.7178C179.681 92.9806 191.221 104.16 194.467 106.384C197.713 108.608 207 118.252 207 118.252L224.519 108.013V108.014Z" fill="white"/>
<path d="M206.999 118.838C206.843 118.838 206.69 118.776 206.577 118.658C206.484 118.562 197.295 109.031 194.134 106.867C191.461 105.035 181.109 95.3847 181.352 92.2569C181.39 91.772 181.645 91.3925 182.072 91.1889C184.813 89.8792 192.337 95.3803 194.192 96.7881C199.97 97.0079 204.123 99.7445 204.996 100.366H222.054C222.273 100.366 222.473 100.487 222.575 100.682C222.676 100.875 222.66 101.11 222.534 101.289L220.402 104.323L224.86 107.538C225.021 107.654 225.112 107.844 225.103 108.042C225.093 108.24 224.984 108.42 224.813 108.52L207.295 118.757C207.202 118.811 207.1 118.838 206.999 118.838ZM183.154 92.1382C182.929 92.1382 182.735 92.1734 182.577 92.2481C182.539 92.2657 182.527 92.2715 182.521 92.3492C182.357 94.4632 191.408 103.58 194.797 105.9C197.75 107.925 205.411 115.772 207.1 117.513L223.445 107.962L219.248 104.935C218.987 104.747 218.927 104.386 219.111 104.122L220.926 101.538H204.804C204.675 101.538 204.551 101.495 204.448 101.418C204.404 101.384 200.06 98.1257 193.967 97.9543C193.844 97.9499 193.726 97.9089 193.628 97.8342C190.566 95.4872 185.356 92.1382 183.153 92.1382H183.154ZM80.4139 170.333C77.4326 170.333 74.299 169.959 71.6151 168.835C71.3162 168.709 71.1756 168.367 71.3016 168.069C71.4261 167.77 71.7689 167.63 72.0678 167.754C79.5422 170.885 91.2256 167.762 91.3413 167.729C91.6533 167.646 91.9756 167.829 92.0606 168.141C92.1456 168.453 91.961 168.775 91.649 168.86C91.3237 168.95 86.1493 170.333 80.4124 170.333H80.4139ZM248.328 169.25C242.538 169.25 237.364 167.866 237.04 167.778C236.728 167.693 236.543 167.37 236.628 167.058C236.713 166.746 237.036 166.559 237.348 166.647C237.465 166.677 249.151 169.802 256.807 166.67C257.106 166.547 257.449 166.691 257.572 166.991C257.695 167.291 257.551 167.633 257.251 167.756C254.507 168.878 251.334 169.251 248.328 169.251V169.25ZM117.924 234.393C117.661 234.393 117.423 234.215 117.355 233.95C117.344 233.905 116.194 229.305 115.819 223.199C115.47 217.544 115.731 209.391 118.952 202.664C119.093 202.371 119.441 202.249 119.734 202.388C120.026 202.529 120.149 202.878 120.01 203.171C114.044 215.63 118.448 233.486 118.492 233.665C118.571 233.978 118.381 234.297 118.067 234.377C118.019 234.388 117.971 234.394 117.924 234.394V234.393ZM218.99 230.594C218.969 230.594 218.947 230.594 218.927 230.591C218.604 230.557 218.371 230.269 218.407 229.946C218.424 229.784 220.074 213.552 214.321 203.2C214.164 202.917 214.265 202.561 214.548 202.403C214.831 202.245 215.188 202.347 215.345 202.63C218.454 208.223 219.437 215.39 219.713 220.418C220.012 225.846 219.576 230.027 219.571 230.069C219.539 230.37 219.286 230.592 218.99 230.592V230.594ZM136.409 61.8904C133.27 61.8904 130.685 61.1974 128.662 59.813C126.638 58.4286 125.132 56.5651 124.147 54.2182C123.163 51.8771 122.667 49.2928 122.667 46.4713V44.3939C122.667 41.3584 123.174 38.6789 124.185 36.3642C125.196 34.0466 126.73 32.2359 128.778 30.932C130.829 29.6252 133.375 28.9718 136.408 28.9718C139.496 28.9718 142.054 29.6252 144.08 30.932C146.102 32.2359 147.619 34.0466 148.635 36.3642C149.645 38.6789 150.152 41.3569 150.152 44.3939V46.4713C150.152 49.2928 149.659 51.8771 148.673 54.2182C147.688 56.5651 146.195 58.4271 144.2 59.813C142.2 61.1974 139.607 61.8904 136.408 61.8904H136.409ZM136.409 54.4584C138.327 54.4584 139.738 53.7523 140.644 52.3415C141.548 50.9307 142.004 48.6556 142.004 45.5117C142.004 42.1539 141.535 39.7996 140.606 38.4416C139.673 37.0821 138.276 36.4038 136.409 36.4038C134.547 36.4038 133.148 37.0835 132.216 38.4416C131.283 39.8011 130.819 42.1275 130.819 45.4311C130.819 48.575 131.283 50.8633 132.216 52.3034C133.149 53.7406 134.547 54.4584 136.409 54.4584ZM140.486 88.4127L161.976 30.0955H171.244L149.754 88.4127H140.486ZM174.999 89.6111C171.908 89.6111 169.353 88.9182 167.326 87.5337C165.305 86.1493 163.799 84.2829 162.814 81.9389C161.825 79.5978 161.335 77.0136 161.335 74.1891V72.1117C161.335 69.0791 161.841 66.3997 162.852 64.0864C163.863 61.7688 165.394 59.958 167.445 58.6513C169.496 57.3474 172.013 56.694 174.997 56.694C178.085 56.694 180.64 57.3474 182.665 58.6513C184.687 59.958 186.204 61.7688 187.22 64.0864C188.231 66.4011 188.737 69.0791 188.737 72.1117V74.1891C188.737 77.0136 188.244 79.5978 187.258 81.9389C186.273 84.2829 184.78 86.1478 182.785 87.5337C180.785 88.9182 178.192 89.6111 174.997 89.6111H174.999ZM174.999 82.1806C176.916 82.1806 178.34 81.4745 179.271 80.0637C180.204 78.6529 180.671 76.3748 180.671 73.2339C180.671 69.8761 180.191 67.5189 179.231 66.1638C178.271 64.8043 176.861 64.126 174.999 64.126C173.132 64.126 171.735 64.8057 170.801 66.1638C169.871 67.5189 169.404 69.8497 169.404 73.1533C169.404 76.2972 169.873 78.5855 170.801 80.0256C171.735 81.4628 173.132 82.1806 174.999 82.1806Z" fill="#292C56"/>
</svg>
