<svg width="28" height="28" viewBox="0 0 28 28" fill="none" xmlns="http://www.w3.org/2000/svg">
<g clip-path="url(#clip0_23_5633)">
<path d="M4.0359 -0.000793457C1.81873 -0.000793457 -0.00439453 1.83324 -0.00439453 4.05045V23.9485C-0.00439453 26.1657 1.81873 27.9998 4.0359 27.9998H23.9449C26.1621 27.9998 27.9852 26.1657 27.9852 23.9485V4.05045C27.9852 1.83324 26.1621 -0.000793457 23.9449 -0.000793457H4.0359Z" fill="#B3DAFF"/>
<path d="M11.1951 -0.000783289C11.0104 -0.00148748 10.8274 0.0343915 10.6566 0.104755C10.4858 0.175118 10.3306 0.278585 10.2 0.4092C10.0694 0.539815 9.96593 0.694986 9.89557 0.865777C9.82521 1.03657 9.78934 1.21961 9.79005 1.40432V12.604C9.7923 12.8795 9.8758 13.1482 10.0301 13.3764C10.1844 13.6047 10.4026 13.7823 10.6574 13.8871C10.9122 13.9919 11.1923 14.0191 11.4625 13.9655C11.7327 13.9118 11.9811 13.7796 12.1765 13.5854L13.9971 11.7784L15.804 13.5854C15.9994 13.7796 16.2478 13.9118 16.518 13.9655C16.7883 14.0191 17.0683 13.9919 17.3231 13.8871C17.5779 13.7823 17.7962 13.6047 17.9504 13.3764C18.1047 13.1482 18.1882 12.8795 18.1905 12.604V1.40432C18.1919 1.03313 18.0458 0.676573 17.7844 0.413074C17.5229 0.149576 17.1675 0.000701058 16.7963 -0.000783289H11.1951Z" fill="white"/>
<path d="M11.1951 -0.000783289C11.0104 -0.00148748 10.8274 0.0343915 10.6566 0.104755C10.4858 0.175118 10.3306 0.278585 10.2 0.4092C10.0694 0.539815 9.96593 0.694986 9.89557 0.865777C9.82521 1.03657 9.78934 1.21961 9.79005 1.40432V12.604C9.7923 12.8795 9.8758 13.1482 10.0301 13.3764C10.1844 13.6047 10.4026 13.7823 10.6574 13.8871C10.9122 13.9919 11.1923 14.0191 11.4625 13.9655C11.7327 13.9118 11.9811 13.7796 12.1765 13.5854L13.9971 11.7784L15.804 13.5854C15.9994 13.7796 16.2478 13.9118 16.518 13.9655C16.7883 14.0191 17.0683 13.9919 17.3231 13.8871C17.5779 13.7823 17.7962 13.6047 17.9504 13.3764C18.1047 13.1482 18.1882 12.8795 18.1905 12.604V1.40432C18.1919 1.03313 18.0458 0.676573 17.7844 0.413074C17.5229 0.149576 17.1675 0.000701058 16.7963 -0.000783289H11.1951Z" fill="white"/>
<path d="M27.9849 18.0578C26.1179 18.9034 24.209 19.6843 22.2717 20.395C14.9076 23.0917 7.29527 24.7152 0.187012 25.105C0.691753 26.7642 2.223 27.9971 4.03591 27.9971H23.9447C26.1618 27.9971 27.9849 26.1631 27.9849 23.946V18.0578Z" fill="#F3F3F3"/>
</g>
<defs>
<clipPath id="clip0_23_5633">
<rect width="27.9888" height="28" fill="white"/>
</clipPath>
</defs>
</svg>
