<?xml version="1.0" encoding="UTF-8"?>
<svg version="1.1" xmlns="http://www.w3.org/2000/svg" width="85" height="36">
<path d="M0 0 C2.31 0 4.62 0 7 0 C7.309375 0.9590625 7.309375 0.9590625 7.625 1.9375 C8.88184267 4.33452489 8.88184267 4.33452489 12 4.6875 C13.485 4.8421875 13.485 4.8421875 15 5 C15.66 5.33 16.32 5.66 17 6 C17.37125 5.484375 17.7425 4.96875 18.125 4.4375 C20 3 20 3 22.875 3.375 C23.90625 3.58125 24.9375 3.7875 26 4 C26.886875 3.79375 27.77375 3.5875 28.6875 3.375 C31 3 31 3 32.875 4.125 C34 6 34 6 34.0625 8.25 C32.53322191 12.20813153 29.88419305 14.93940371 27 18 C22.20719998 17.19095897 20.86479887 14.74015409 18 11 C17.525625 12.134375 17.05125 13.26875 16.5625 14.4375 C15 18 15 18 14 19 C11.83519203 19.0989294 9.66706215 19.129711 7.5 19.125 C6.3140625 19.12757812 5.128125 19.13015625 3.90625 19.1328125 C1 19 1 19 0 18 C-0.08631874 16.65732587 -0.10706473 15.31025678 -0.09765625 13.96484375 C-0.09443359 13.15595703 -0.09121094 12.34707031 -0.08789062 11.51367188 C-0.07951172 10.66353516 -0.07113281 9.81339844 -0.0625 8.9375 C-0.05798828 8.08349609 -0.05347656 7.22949219 -0.04882812 6.34960938 C-0.03700373 4.23304337 -0.01906769 2.11651315 0 0 Z M8 10 C8 10.99 8 11.98 8 13 C8.66 13 9.32 13 10 13 C10 12.01 10 11.02 10 10 C9.34 10 8.68 10 8 10 Z " fill="#312B26" transform="translate(9,0)"/>
<path d="M0 0 C0.97195312 -0.02900391 1.94390625 -0.05800781 2.9453125 -0.08789062 C3.87859375 -0.09626953 4.811875 -0.10464844 5.7734375 -0.11328125 C6.63114746 -0.12786377 7.48885742 -0.14244629 8.37255859 -0.1574707 C10.625 0.3125 10.625 0.3125 12.40991211 2.16430664 C13.98464578 4.94832946 13.92592209 6.88668154 13.8125 10.0625 C13.78542969 11.04734375 13.75835937 12.0321875 13.73046875 13.046875 C13.69566406 13.79453125 13.66085938 14.5421875 13.625 15.3125 C11.315 15.3125 9.005 15.3125 6.625 15.3125 C6.295 12.6725 5.965 10.0325 5.625 7.3125 C4.64891783 10.24074652 4.54273332 12.26863276 4.625 15.3125 C2.645 15.3125 0.665 15.3125 -1.375 15.3125 C-2.035 12.6725 -2.695 10.0325 -3.375 7.3125 C-3.705 9.9525 -4.035 12.5925 -4.375 15.3125 C-6.37454746 15.35504356 -8.37541636 15.35330783 -10.375 15.3125 C-11.375 14.3125 -11.375 14.3125 -11.5078125 11.40625 C-11.50523438 10.2203125 -11.50265625 9.034375 -11.5 7.8125 C-11.50257812 6.6265625 -11.50515625 5.440625 -11.5078125 4.21875 C-11.22639952 -1.93922811 -4.94894241 0.04883825 0 0 Z " fill="#312B26" transform="translate(46.375,20.6875)"/>
<path d="M0 0 C2.31 0.33 4.62 0.66 7 1 C7 2.32 7 3.64 7 5 C7.928125 4.896875 8.85625 4.79375 9.8125 4.6875 C13 5 13 5 14.875 6.875 C16.4588944 11.27470666 16.2425837 15.37294057 16 20 C13.69 20 11.38 20 9 20 C8.67 17.36 8.34 14.72 8 12 C7.34 14.64 6.68 17.28 6 20 C4.02 20 2.04 20 0 20 C0 13.4 0 6.8 0 0 Z " fill="#312B26" transform="translate(0,16)"/>
<path d="M0 0 C10.7421875 -0.1953125 10.7421875 -0.1953125 14 0 C17.10083033 3.10083033 17.06433965 5.94885801 17.125 10.1875 C17 14 17 14 16 15 C14.00041636 15.04080783 11.99954746 15.04254356 10 15 C9.67 12.36 9.34 9.72 9 7 C8.67 7 8.34 7 8 7 C7.67 9.64 7.34 12.28 7 15 C4.69 15 2.38 15 0 15 C0 10.05 0 5.1 0 0 Z " fill="#312B26" transform="translate(44,4)"/>
<path d="M0 0 C0.85722656 0.01933594 1.71445312 0.03867187 2.59765625 0.05859375 C3.45230469 0.05988281 4.30695312 0.06117187 5.1875 0.0625 C8.13170227 0.57878191 9.53508326 1.40974647 11.66015625 3.49609375 C12.25953507 7.54190078 12.02399685 9.78357257 10.16015625 13.43359375 C7.29963013 15.7935278 5.33616053 16.229666 1.6328125 15.98046875 C-1.85045347 15.12517176 -3.34012663 13.37068711 -5.33984375 10.49609375 C-5.89480411 7.09696154 -5.81831911 5.33992249 -4.1171875 2.33984375 C-2.33984375 0.49609375 -2.33984375 0.49609375 0 0 Z M1.66015625 6.49609375 C1.99015625 7.48609375 2.32015625 8.47609375 2.66015625 9.49609375 C3.32015625 9.49609375 3.98015625 9.49609375 4.66015625 9.49609375 C4.66015625 8.50609375 4.66015625 7.51609375 4.66015625 6.49609375 C3.67015625 6.49609375 2.68015625 6.49609375 1.66015625 6.49609375 Z " fill="#312B26" transform="translate(22.33984375,20.50390625)"/>
<path d="M0 0 C2.74626101 2.18292542 3.81488133 3.77989967 4.34375 7.265625 C4.43536292 9.63229223 4.50531228 11.6828473 4 14 C0.30969275 16.46020483 -2.71777836 16.79823937 -7 16 C-10.0625 13.9375 -10.0625 13.9375 -12 11 C-12.06944397 7.04169355 -11.5699479 4.85492184 -9.375 1.5625 C-6.01306001 -0.64930263 -3.94025458 -0.6332552 0 0 Z " fill="#312B26" transform="translate(81,20)"/>
<path d="M0 0 C0.886875 -0.20625 1.77375 -0.4125 2.6875 -0.625 C5 -1 5 -1 6.875 0.125 C8 2 8 2 8.0625 4.25 C6.53322191 8.20813153 3.88419305 10.93940371 1 14 C-3.65253288 13.16671053 -5.28411227 10.81692329 -8 7 C-9 4.3125 -9 4.3125 -9 2 C-6.7059037 -2.04840523 -4.0658775 -0.8131755 0 0 Z " fill="#E25057" transform="translate(35,4)"/>
<path d="M0 0 C1.67542976 0.28604898 3.34385343 0.61781233 5 1 C4.814375 1.639375 4.62875 2.27875 4.4375 2.9375 C4.293125 3.618125 4.14875 4.29875 4 5 C4.33 5.33 4.66 5.66 5 6 C5.07258946 8.18639453 5.08373783 10.37500389 5.0625 12.5625 C5.05347656 13.76003906 5.04445313 14.95757812 5.03515625 16.19140625 C5.02355469 17.11824219 5.01195313 18.04507813 5 19 C2.69 19 0.38 19 -2 19 C-2.0991667 12.90675749 -2.17328971 6.99681407 -1 1 C-0.67 0.67 -0.34 0.34 0 0 Z " fill="#312B26" transform="translate(63,17)"/>
</svg>
