<svg width="60" height="60" viewBox="0 0 60 60" fill="none" xmlns="http://www.w3.org/2000/svg">
<path opacity="0.3" fill-rule="evenodd" clip-rule="evenodd" d="M0 30V37C0 49.7025 10.2975 60 23 60H30H37C49.7025 60 60 49.7025 60 37V30V23C60 10.2975 49.7025 0 37 0H30H23C10.2975 0 0 10.2975 0 23V30Z" fill="#A9A9A9"/>
<path d="M42.1172 20.4991C42.1172 20.4933 42.1114 20.4845 42.1114 20.4786C42.1114 20.4581 42.1085 20.4376 42.1055 20.4171C42.0792 19.4152 41.5987 18.4952 40.8018 17.8888C40.2452 17.4669 39.5538 17.256 38.8594 17.253C38.4171 17.253 37.9717 17.253 37.5294 17.253H32.959V24.1612C32.959 24.6622 32.4141 24.9611 31.9835 24.7237C31.8633 24.6564 31.7462 24.589 31.6231 24.5216C30.8702 24.1027 30.1143 23.6749 29.3614 23.2618C29.3467 23.2706 29.335 23.2765 29.3204 23.2853C28.4561 23.7657 27.5948 24.2433 26.7305 24.7208C26.3028 24.9581 25.7491 24.6593 25.7491 24.1583V17.256H20.6837C20.1827 17.256 19.67 17.2267 19.1749 17.3263C18.2286 17.5167 17.3731 18.1759 16.9512 19.0431C16.7198 19.5206 16.6114 20.0275 16.6114 20.5577V36.1847C16.6114 36.6388 16.5821 37.1105 16.6348 37.5646C16.752 38.5607 17.3087 39.4484 18.1729 39.9728C18.6973 40.2921 19.3008 40.4298 19.9131 40.4298H31.8458C31.7696 40.3126 31.6905 40.1544 31.6231 40.0079C31.5587 39.8644 31.4942 39.7325 31.4356 39.5861C31.1426 38.7423 30.9727 37.837 31.0137 36.92C31.0313 36.5568 31.0782 36.1964 31.1514 35.8419C31.1749 35.7247 31.2042 35.6046 31.2335 35.4874C31.2715 35.3409 31.3126 35.1945 31.3624 35.0509C31.3712 35.0275 31.377 35.004 31.3858 34.9777C31.3946 34.9484 31.4063 34.922 31.4151 34.8927C31.421 34.8722 31.4297 34.8546 31.4356 34.8341C31.4444 34.8107 31.4532 34.7872 31.462 34.7638C31.462 34.7609 31.462 34.7579 31.4649 34.755C31.4649 34.7521 31.4678 34.7491 31.4678 34.7462C31.4737 34.7286 31.4825 34.7111 31.4883 34.6935C31.4883 34.6935 31.4913 34.6935 31.4913 34.6905C31.4913 34.6788 31.4971 34.6671 31.503 34.6554V34.6525C31.5059 34.6466 31.5001 34.6407 31.5001 34.6349L31.4913 34.6319H31.5001C31.5001 34.629 31.5059 34.6232 31.5088 34.6202H31.5118C31.5206 34.5968 31.5323 34.5734 31.5411 34.5499C31.5499 34.5265 31.5616 34.503 31.5704 34.4796C31.5821 34.4503 31.5967 34.421 31.6085 34.3946H31.6114C31.6378 34.3361 31.6641 34.2804 31.6934 34.2247C31.7227 34.1954 31.7169 34.1691 31.7315 34.1398C31.7432 34.1163 31.752 34.0958 31.7637 34.0724C31.7755 34.0489 31.7872 34.0284 31.7989 34.005C31.8106 33.9816 31.8223 33.9611 31.834 33.9376C31.8809 33.8497 31.9307 33.7618 31.9835 33.6739C31.9893 33.6622 31.9952 33.6534 32.004 33.6417C32.0098 33.63 32.0157 33.6212 32.0245 33.6095C32.0274 33.6066 32.0274 33.6036 32.0303 33.6007C32.0333 33.5978 32.0333 33.5948 32.0362 33.5919C32.0508 33.5685 32.0655 33.545 32.0801 33.5216C32.0831 33.5157 32.086 33.5128 32.0889 33.5069C32.0919 33.5011 32.0977 33.4923 32.1036 33.4864C32.1036 33.4835 32.1065 33.4835 32.1065 33.4806C32.1182 33.4659 32.127 33.4484 32.1387 33.4337C32.1417 33.4278 32.1475 33.422 32.1505 33.4161C32.1651 33.3956 32.1797 33.3751 32.1944 33.3546C32.209 33.3341 32.2237 33.3136 32.2383 33.2931C32.2501 33.2784 32.2618 33.2609 32.2735 33.2433C32.2852 33.2286 32.2969 33.211 32.3087 33.1964C32.3087 33.1935 32.3116 33.1935 32.3116 33.1935C32.3116 33.1905 32.3145 33.1905 32.3145 33.1876C32.3174 33.1847 32.3174 33.1818 32.3204 33.1788C32.3233 33.1759 32.3262 33.173 32.3292 33.1671C32.3614 33.1261 32.3936 33.0821 32.4258 33.0411L32.4288 33.0382C32.4317 33.0353 32.4346 33.0294 32.4376 33.0265C32.4434 33.0177 32.4493 33.0118 32.4551 33.003C32.5049 32.9386 32.5547 32.8771 32.6075 32.8155C32.6426 32.7745 32.6749 32.7364 32.71 32.6954C32.7129 32.6925 32.7129 32.6896 32.7159 32.6896C32.7393 32.6632 32.7598 32.6398 32.7833 32.6134C32.7862 32.6105 32.7862 32.6075 32.7891 32.6075C32.7921 32.6046 32.795 32.6017 32.795 32.5987C32.8038 32.59 32.8155 32.5812 32.8243 32.5724C32.8272 32.5694 32.8331 32.5694 32.8331 32.5665L32.836 32.5636C32.8506 32.5489 32.8594 32.5372 32.8712 32.5226C32.8712 32.5226 32.8712 32.5226 32.8712 32.5196C32.8712 32.5167 32.877 32.5109 32.8799 32.5079C32.8887 32.4991 32.9004 32.4903 32.9004 32.4816L32.9092 32.4845C32.9092 32.4845 32.9092 32.4845 32.9092 32.4816C32.9063 32.4816 32.9034 32.4816 32.9034 32.4786C32.9063 32.4757 32.9122 32.4728 32.9122 32.4728C32.9444 32.4405 32.9766 32.4054 33.0089 32.3732C33.0352 32.3468 33.0616 32.3204 33.0909 32.2941C33.0909 32.2941 33.0938 32.2941 33.0938 32.2911C33.1319 32.253 33.1729 32.215 33.2139 32.1769C33.2256 32.1652 33.2374 32.1534 33.252 32.1417C33.2696 32.1241 33.2901 32.1066 33.3077 32.0919C33.3106 32.089 33.3106 32.089 33.3135 32.089C33.334 32.0714 33.3516 32.0538 33.3721 32.0362C33.3956 32.0157 33.419 31.9952 33.4424 31.9777C33.9639 31.5353 34.5499 31.172 35.1856 30.9025C35.2852 30.8614 35.3878 30.8234 35.4903 30.7882C35.5255 30.7765 35.5577 30.756 35.5928 30.756C35.6456 30.7267 35.7012 30.715 35.754 30.6974C35.754 30.6974 35.754 30.6944 35.7569 30.6944C35.8096 30.6769 35.8653 30.6593 35.921 30.6446C35.959 30.6329 35.9971 30.6212 36.0352 30.6124C36.0557 30.6066 36.0762 30.6007 36.0938 30.5948C36.1143 30.589 36.1348 30.5861 36.1524 30.5802C36.4366 30.5069 36.7237 30.4484 37.0108 30.4132C37.043 30.4103 37.0753 30.4044 37.1075 30.4015C37.1338 30.3986 37.1602 30.3956 37.1895 30.3927C37.2159 30.3898 37.2422 30.3868 37.2686 30.3839C37.2979 30.381 37.3243 30.378 37.3536 30.3751C37.3975 30.3722 37.4385 30.3605 37.4825 30.3575C37.5264 30.3546 37.5674 30.3458 37.6114 30.3458H37.7315L37.7344 30.3517C37.7374 30.3517 37.7432 30.3546 37.7462 30.3546C37.7813 30.3546 37.8165 30.3575 37.8516 30.3575C37.8751 30.3575 37.9014 30.3575 37.9249 30.3575C37.9542 30.3575 37.9805 30.3575 38.0069 30.3575C38.0333 30.3575 38.0596 30.3575 38.0889 30.3605C38.1153 30.3605 38.1417 30.3634 38.171 30.3634C38.3292 30.3693 38.4903 30.381 38.6485 30.3986C38.7774 30.4132 38.9063 30.4308 39.0323 30.4513C39.085 30.4601 39.1348 30.4689 39.1876 30.4806C39.2637 30.4952 39.3399 30.5099 39.4131 30.5275C39.6475 30.5802 39.879 30.6505 40.1046 30.7296C40.3975 30.8351 40.6817 30.9581 40.9571 31.0929C41.0567 31.1427 41.1563 31.1896 41.2559 31.2482C41.2559 31.2482 41.2559 31.2511 41.2588 31.2511C41.2706 31.2599 41.2823 31.2716 41.294 31.2804C41.3087 31.2921 41.3233 31.3009 41.3379 31.3068C41.3409 31.3068 41.3409 31.3097 41.3438 31.3097H41.3467C41.3497 31.3097 41.3555 31.3097 41.3585 31.3097C41.3614 31.3097 41.3643 31.3068 41.3643 31.3068C41.3848 31.3068 41.4053 31.3419 41.4258 31.3566C41.4317 31.3595 41.4376 31.3653 41.4434 31.3683C41.4522 31.3741 41.461 31.38 41.4669 31.3859C41.4815 31.3946 41.4932 31.4034 41.5079 31.4122C41.5225 31.421 41.5372 31.4298 41.5518 31.4386C41.5547 31.4386 41.5547 31.4415 41.5577 31.4415C41.6016 31.4679 41.6514 31.4943 41.6954 31.5236C41.8448 31.6261 41.9854 31.7374 42.1319 31.8517V21.964C42.129 21.4777 42.1348 20.9855 42.1172 20.4991ZM20.2618 31.963H23.1622C23.5254 31.963 23.7979 32.256 23.8126 32.6075C23.8272 32.9591 23.502 33.2521 23.1622 33.2521H20.2618C19.8985 33.2521 19.626 32.9591 19.6114 32.6075C19.5967 32.256 19.9219 31.963 20.2618 31.963ZM27.6651 36.5333H20.2618C19.8985 36.5333 19.626 36.2403 19.6114 35.8888C19.5967 35.5372 19.9219 35.2443 20.2618 35.2443H27.6622C28.0254 35.2443 28.2979 35.5372 28.3126 35.8888C28.3301 36.2403 28.0049 36.5333 27.6651 36.5333Z" fill="#A9A9A9"/>
<path d="M43.3769 36.7062C43.3711 36.6241 43.3623 36.5421 43.3535 36.4601C43.3535 36.4571 43.3535 36.4542 43.3535 36.4513V36.4483C43.3535 36.4454 43.3535 36.4425 43.3506 36.4396C43.3447 36.4073 43.3418 36.3751 43.3359 36.3429C43.2802 36.0118 43.1982 35.6837 43.0869 35.3644C43.0547 35.2735 43.0224 35.1856 42.9873 35.0978C42.9814 35.086 42.9726 35.0655 42.9638 35.045C42.9726 35.089 42.9551 35.0978 42.9521 35.0128C42.9521 35.0128 42.9521 35.0128 42.9521 35.0157C42.9521 35.0245 42.958 35.0333 42.9638 35.045C42.9609 35.0362 42.9609 35.0245 42.9551 35.0157L42.9521 35.0128H42.9492V35.0099C42.9492 35.0099 42.9521 35.0099 42.9521 35.0128C42.8906 34.8692 42.8174 34.7286 42.7441 34.5909C42.6064 34.336 42.4511 34.0548 42.2607 33.8292C42.2607 33.8263 42.2578 33.8263 42.2578 33.8233C42.2549 33.8204 42.2519 33.8146 42.249 33.8116C42.2343 33.797 42.2197 33.7794 42.2109 33.7677C42.1816 33.7325 42.1523 33.6944 42.1201 33.6593C42.0703 33.6007 42.0176 33.5421 41.9648 33.4835C41.8594 33.3692 41.751 33.2579 41.6367 33.1524C41.5195 33.044 41.3994 32.9415 41.2763 32.839C41.2646 32.8302 41.2558 32.8243 41.25 32.8155C41.2441 32.8097 41.2353 32.8038 41.2236 32.795C41.1914 32.7716 41.1621 32.7481 41.1299 32.7247C41.0537 32.669 40.9746 32.6163 40.8926 32.5636C40.7343 32.461 40.5732 32.3673 40.4092 32.2794C40.333 32.2384 40.2568 32.2003 40.1806 32.1651C40.1484 32.1505 40.1191 32.1358 40.0869 32.1212C40.0781 32.1183 40.0605 32.1095 40.04 32.0978C40.0342 32.0948 40.0283 32.0919 40.0224 32.089C39.7236 31.9454 39.3808 31.8605 39.0615 31.7872C38.959 31.7638 38.8564 31.7433 38.751 31.7257C38.6982 31.7169 38.6455 31.7081 38.5927 31.6993C38.581 31.6964 38.5576 31.6935 38.5429 31.6876H38.54C38.3877 31.6642 38.2207 31.6642 38.0683 31.6583C37.7578 31.6466 37.4472 31.6612 37.1396 31.6935C37.1279 31.6935 37.1191 31.6964 37.1133 31.6964C37.0898 31.6993 37.0635 31.7052 37.04 31.7081C36.9697 31.7198 36.9023 31.7315 36.832 31.7462C36.6943 31.7726 36.5595 31.8048 36.4248 31.8399C36.2783 31.878 36.1318 31.9249 35.9883 31.9747C35.9238 31.9982 35.8594 32.0216 35.7949 32.045C35.7685 32.0538 35.7451 32.0655 35.7217 32.0743C35.6836 32.1153 35.5693 32.1417 35.5166 32.1651C35.4609 32.1915 35.4052 32.2179 35.3525 32.2472C35.2324 32.3087 35.1123 32.3761 34.9951 32.4464C34.8662 32.5226 34.7431 32.6046 34.6201 32.6896C34.5761 32.7218 34.5322 32.7511 34.4883 32.7833C34.4736 32.8067 34.4179 32.839 34.3945 32.8565C34.1806 33.0323 33.9785 33.2198 33.7881 33.422C33.6914 33.5245 33.5976 33.6329 33.5068 33.7413C33.4892 33.7618 33.4599 33.8175 33.4336 33.8351C33.4013 33.879 33.3691 33.92 33.3398 33.964C33.1758 34.1983 33.0293 34.4415 32.8974 34.6935C32.8652 34.755 32.8359 34.8165 32.8066 34.878C32.7832 34.9249 32.7627 35.0304 32.7246 35.0626C32.7158 35.086 32.7041 35.1124 32.6953 35.1358C32.6719 35.2003 32.6455 35.2648 32.625 35.3292C32.5283 35.6046 32.4521 35.8858 32.3965 36.173C32.3818 36.2491 32.3672 36.3253 32.3554 36.4015C32.3525 36.4161 32.3525 36.4337 32.3496 36.4513C32.3613 36.4073 32.3789 36.3898 32.3408 36.4981C32.3261 36.6271 32.3144 36.756 32.3086 36.8878C32.291 37.2364 32.3027 37.5851 32.3437 37.9308V37.9337C32.3467 37.9513 32.3584 38.0216 32.3613 38.0421C32.3701 38.0978 32.3818 38.1534 32.3906 38.2091C32.4082 38.2999 32.4287 38.3907 32.4492 38.4815C32.4902 38.6515 32.54 38.8214 32.5957 38.9855C32.6279 39.0821 32.6631 39.1759 32.6982 39.2696C32.7011 39.2784 32.7363 39.3634 32.7392 39.3722C32.748 39.3927 32.7568 39.4132 32.7685 39.4366C32.8418 39.5978 32.9238 39.756 33.0117 39.9112C33.0908 40.0519 33.1758 40.1896 33.2666 40.3243C33.3076 40.3858 33.3486 40.4444 33.3926 40.506C33.4101 40.5294 33.4277 40.5528 33.4453 40.5763C33.4453 40.5792 33.4482 40.5792 33.4482 40.5792L33.4511 40.5821C33.6386 40.8107 33.832 41.0274 34.0459 41.2325C34.1631 41.3439 34.2861 41.4493 34.4121 41.5519C34.415 41.5548 34.4209 41.5606 34.4297 41.5665L34.4326 41.5694C34.4326 41.5694 34.4355 41.5694 34.4355 41.5724L34.4385 41.5753L34.4414 41.5782C34.459 41.5929 34.4853 41.6105 34.4883 41.6134C34.5469 41.6573 34.6084 41.7013 34.667 41.7423C34.916 41.9122 35.1797 42.0675 35.4521 42.1993C35.5254 42.2345 35.6015 42.2696 35.6748 42.3019C35.6777 42.3048 35.6806 42.3048 35.6836 42.3048C35.7099 42.3165 35.7392 42.3282 35.7656 42.337C35.9062 42.3927 36.0469 42.4396 36.1904 42.4835C36.3486 42.5333 36.5097 42.5743 36.6738 42.6095C36.8086 42.6388 36.9902 42.7032 37.125 42.6915C37.0986 42.6886 37.0722 42.6827 37.0429 42.6798C37.0722 42.6827 37.1045 42.6886 37.1338 42.6915C37.1719 42.6944 37.2099 42.7003 37.248 42.7032C37.3183 42.7091 37.3886 42.7149 37.459 42.7179C37.6142 42.7267 37.7695 42.7296 37.9248 42.7296C38.083 42.7267 38.2412 42.7208 38.3994 42.7062C38.4287 42.7032 38.4873 42.6886 38.5371 42.6827C38.5224 42.6886 38.5224 42.6974 38.5664 42.6886C38.581 42.6856 38.5957 42.6857 38.6103 42.6827C38.6367 42.6798 38.666 42.6739 38.6924 42.671C38.9677 42.6241 39.2402 42.5597 39.5068 42.4776C39.6504 42.4337 39.7939 42.3839 39.9345 42.3282C39.9609 42.3194 39.9844 42.3077 40.0107 42.296C40.0722 42.2667 40.1338 42.2403 40.1924 42.211C40.4443 42.0909 40.6875 41.9532 40.9189 41.798C40.9804 41.7569 41.042 41.7159 41.1035 41.672C41.1504 41.6398 41.209 41.5753 41.2617 41.5548C41.2822 41.5372 41.3027 41.5196 41.3232 41.5021C41.376 41.4581 41.4258 41.4142 41.4785 41.3702C41.6894 41.1827 41.8916 40.9806 42.0761 40.7667C42.1201 40.714 42.164 40.6612 42.2051 40.6114C42.2051 40.6144 42.2051 40.6144 42.2021 40.6173C42.2021 40.6144 42.2051 40.6144 42.2051 40.6114C42.208 40.6056 42.2138 40.6026 42.2168 40.5968C42.2256 40.5851 42.2314 40.5763 42.2373 40.5675C42.2461 40.5558 42.2578 40.547 42.2636 40.5353C42.3398 40.4327 42.4131 40.3273 42.4834 40.2189C42.6386 39.9786 42.7763 39.7296 42.8965 39.4689C42.914 39.4308 42.9316 39.3927 42.9463 39.3575C42.9463 39.3546 42.9492 39.3546 42.9492 39.3517C42.9492 39.3517 42.9492 39.3487 42.9521 39.3487C42.9756 39.2901 42.999 39.2315 43.0224 39.17C43.0693 39.047 43.1103 38.9239 43.1455 38.798C43.2275 38.5255 43.289 38.2442 43.333 37.963C43.3242 37.9396 43.3447 37.8634 43.3476 37.837C43.3564 37.7667 43.3623 37.6935 43.3652 37.6232C43.374 37.4796 43.3799 37.336 43.3799 37.1896C43.3945 37.0372 43.3886 36.8732 43.3769 36.7062ZM38.9502 37.38C39.3867 37.8165 39.8232 38.253 40.2597 38.6896C40.5176 38.9474 40.497 39.3487 40.2597 39.6095C40.0224 39.8673 39.5801 39.8497 39.3398 39.6095C39.1787 39.4483 39.0146 39.2843 38.8535 39.1232C38.5195 38.7892 38.1885 38.4581 37.8545 38.1241L37.6816 38.297C37.2451 38.7335 36.8086 39.17 36.372 39.6065C36.1142 39.8644 35.7129 39.8439 35.4521 39.6065C35.1943 39.3692 35.2119 38.9269 35.4521 38.6866C35.6133 38.5255 35.7773 38.3644 35.9385 38.2003C36.2724 37.8663 36.6035 37.5353 36.9375 37.2013C36.8789 37.1427 36.8203 37.0841 36.7646 37.0284C36.3281 36.5919 35.8916 36.1554 35.4551 35.7189C35.1972 35.461 35.2177 35.0597 35.4551 34.7989C35.6924 34.5411 36.1347 34.5587 36.375 34.7989C36.5361 34.9601 36.7002 35.1241 36.8613 35.2853L37.8603 36.2843C37.9189 36.2257 37.9775 36.1671 38.0332 36.1114L39.3427 34.8019C39.6006 34.544 40.0019 34.5646 40.2627 34.8019C40.5205 35.0392 40.5029 35.4815 40.2627 35.7218C40.1015 35.8829 39.9375 36.047 39.7763 36.2081L38.7773 37.2071L38.9502 37.38ZM34.4619 32.8185C34.4414 32.8331 34.4326 32.8419 34.4297 32.8419C34.4355 32.839 34.4736 32.8097 34.4883 32.798C34.4795 32.8038 34.4707 32.8097 34.4619 32.8185ZM33.4687 33.8116C33.4629 33.8204 33.4541 33.8292 33.4482 33.838C33.4629 33.8204 33.4892 33.7823 33.4922 33.7765C33.4922 33.7823 33.4834 33.7911 33.4687 33.8116ZM32.3554 36.4952C32.3554 36.5011 32.3554 36.504 32.3525 36.5099C32.3554 36.4952 32.3584 36.4806 32.3584 36.4659C32.3584 36.4747 32.3554 36.4835 32.3554 36.4952ZM32.3496 36.5187C32.3496 36.5157 32.3525 36.5128 32.3525 36.5099C32.3525 36.5099 32.3525 36.5099 32.3525 36.5069C32.3525 36.5128 32.3525 36.5157 32.3496 36.5187Z" fill="#A9A9A9"/>
</svg>
