<svg width="60" height="60" viewBox="0 0 60 60" fill="none" xmlns="http://www.w3.org/2000/svg">
<path opacity="0.21" fill-rule="evenodd" clip-rule="evenodd" d="M0 30V37C0 49.7025 10.2975 60 23 60H30H37C49.7025 60 60 49.7025 60 37V30V23C60 10.2975 49.7025 0 37 0H30H23C10.2975 0 0 10.2975 0 23V30Z" fill="#FEC53D"/>
<g clip-path="url(#clip0_7_1371)">
<path d="M33.0063 14V26.2833C33.0174 26.3729 33 26.4638 32.9564 26.5429C32.9128 26.6219 32.8453 26.6852 32.7636 26.7236C32.6818 26.7621 32.5901 26.7736 32.5013 26.7568C32.4126 26.7399 32.3315 26.6954 32.2696 26.6296L29.1217 23.2676C29.0833 23.2213 29.0352 23.1841 28.9808 23.1586C28.9264 23.1331 28.867 23.1198 28.8069 23.1198C28.7468 23.1198 28.6874 23.1331 28.633 23.1586C28.5786 23.1841 28.5305 23.2213 28.4921 23.2676L25.3441 26.6296C25.2823 26.6954 25.2012 26.7399 25.1125 26.7568C25.0237 26.7736 24.932 26.7621 24.8502 26.7236C24.7685 26.6852 24.701 26.6219 24.6574 26.5429C24.6138 26.4638 24.5964 26.3729 24.6075 26.2833V14H33.0063Z" fill="#FEC53D"/>
<path d="M39.3211 14H34.914V30.0986C34.9173 30.2248 34.8826 30.349 34.8145 30.4552C34.7463 30.5613 34.6479 30.6446 34.5318 30.6941C34.4158 30.7437 34.2875 30.7572 34.1637 30.733C34.0399 30.7087 33.9262 30.6479 33.8374 30.5582L29.2603 26.1511C29.1426 26.0357 28.9844 25.9711 28.8196 25.9711C28.6548 25.9711 28.4965 26.0357 28.3789 26.1511L23.8017 30.5582C23.7129 30.6479 23.5992 30.7087 23.4754 30.733C23.3516 30.7572 23.2234 30.7437 23.1073 30.6941C22.9913 30.6446 22.8928 30.5613 22.8247 30.4552C22.7565 30.349 22.7218 30.2248 22.7251 30.0986V14H20.6727C19.1699 14 17.7286 14.597 16.666 15.6596C15.6033 16.7223 15.0063 18.1635 15.0063 19.6663V38.3148C15.0063 39.8176 15.6033 41.2588 16.666 42.3215C17.7286 43.3841 19.1699 43.9811 20.6727 43.9811H39.3211C40.8239 43.9811 42.2652 43.3841 43.3278 42.3215C44.3905 41.2588 44.9875 39.8176 44.9875 38.3148V19.6726C44.9883 18.928 44.8423 18.1905 44.5579 17.5023C44.2736 16.8141 43.8563 16.1887 43.3301 15.6619C42.8038 15.135 42.1789 14.7171 41.491 14.4319C40.8031 14.1468 40.0658 14 39.3211 14ZM35.4051 40.6632H20.9245C20.674 40.6632 20.4338 40.5637 20.2567 40.3866C20.0796 40.2095 19.9801 39.9692 19.9801 39.7188C19.9801 39.4683 20.0796 39.2281 20.2567 39.051C20.4338 38.8739 20.674 38.7744 20.9245 38.7744H35.4051C35.6556 38.7744 35.8958 38.8739 36.0729 39.051C36.25 39.2281 36.3495 39.4683 36.3495 39.7188C36.3495 39.9692 36.25 40.2095 36.0729 40.3866C35.8958 40.5637 35.6556 40.6632 35.4051 40.6632ZM40.6685 36.256H20.9119C20.6614 36.256 20.4212 36.1565 20.2441 35.9794C20.067 35.8023 19.9675 35.5621 19.9675 35.3116C19.9675 35.0612 20.067 34.821 20.2441 34.6439C20.4212 34.4668 20.6614 34.3673 20.9119 34.3673H40.6685C40.9189 34.3673 41.1591 34.4668 41.3363 34.6439C41.5134 34.821 41.6129 35.0612 41.6129 35.3116C41.6129 35.5621 41.5134 35.8023 41.3363 35.9794C41.1591 36.1565 40.9189 36.256 40.6685 36.256Z" fill="#FEC53D"/>
</g>
<defs>
<clipPath id="clip0_7_1371">
<rect width="30" height="30" fill="white" transform="translate(15 14)"/>
</clipPath>
</defs>
</svg>
