<svg width="60" height="60" viewBox="0 0 60 60" fill="none" xmlns="http://www.w3.org/2000/svg">
<path opacity="0.3" fill-rule="evenodd" clip-rule="evenodd" d="M0 30V37C0 49.7025 10.2975 60 23 60H30H37C49.7025 60 60 49.7025 60 37V30V23C60 10.2975 49.7025 0 37 0H30H23C10.2975 0 0 10.2975 0 23V30Z" fill="#FF6C6C"/>
<path d="M19.1111 40.8889H42.4444C43.3036 40.8889 44 41.5853 44 42.4444C44 43.3036 43.3036 44 42.4444 44H17.5556C16.6964 44 16 43.3036 16 42.4444V17.5556C16 16.6964 16.6964 16 17.5556 16C18.4147 16 19.1111 16.6964 19.1111 17.5556V40.8889Z" fill="#FF6C6C"/>
<path opacity="0.5" d="M24.9126 21.9361C24.325 21.3094 23.3406 21.2776 22.7138 21.8652C22.0871 22.4528 22.0553 23.4372 22.6429 24.0639L28.4762 30.2861C29.0445 30.8923 29.9888 30.9449 30.6208 30.4055L35.2248 26.4768L41.2235 34.075C41.7558 34.7493 42.734 34.8644 43.4083 34.3321C44.0826 33.7997 44.1977 32.8215 43.6653 32.1472L36.6653 23.2806C36.1186 22.588 35.1059 22.4884 34.4347 23.0612L29.7306 27.0753L24.9126 21.9361Z" fill="#FF6C6C"/>
</svg>
