<svg width="60" height="60" viewBox="0 0 60 60" fill="none" xmlns="http://www.w3.org/2000/svg">
<path opacity="0.3" fill-rule="evenodd" clip-rule="evenodd" d="M0 30V37C0 49.7025 10.2975 60 23 60H30H37C49.7025 60 60 49.7025 60 37V30V23C60 10.2975 49.7025 0 37 0H30H23C10.2975 0 0 10.2975 0 23V30Z" fill="#FF9066"/>
<path d="M42.1289 20.502C42.1289 20.4961 42.1289 20.4902 42.1289 20.4844V20.4814C42.0996 19.459 41.6191 18.5156 40.8047 17.9004C40.248 17.4785 39.5449 17.2734 38.8506 17.2734C38.4082 17.2734 37.957 17.2852 37.5146 17.2852H33.0469V24.167C33.0469 24.1729 33.0439 24.1787 33.0439 24.1846C33.0439 24.2109 33.041 24.2373 33.0322 24.2607C33.0322 24.2637 33.0381 24.2637 33.0381 24.2666H33.0469C33.0469 24.2695 33.0469 24.2725 33.0176 24.2754C33.0176 24.2783 33.0176 24.2812 33.0176 24.2842H33.0234C33.0205 24.29 33.0176 24.2959 33.0176 24.2988C33.0176 24.3135 33.0088 24.3252 33.0029 24.3398C32.9971 24.3516 32.9912 24.3662 32.9853 24.3779C32.9824 24.3838 32.9795 24.3867 32.9766 24.3926C32.9766 24.3926 32.9766 24.3955 32.9736 24.3955C32.9736 24.3984 32.9707 24.3984 32.9707 24.4014C32.9707 24.4043 32.9678 24.4043 32.9678 24.4072C32.9648 24.4102 32.9619 24.416 32.959 24.4189C32.959 24.4189 32.959 24.4219 32.956 24.4219C32.9531 24.4277 32.9473 24.4336 32.9443 24.4395C32.9385 24.4453 32.9326 24.4512 32.9268 24.46C32.9268 24.46 32.9268 24.46 32.9238 24.4629C32.9209 24.4658 32.9209 24.4658 32.918 24.4688H32.9238H32.9297C32.9297 24.4746 32.9121 24.4805 32.9062 24.4834H32.9033C32.9033 24.4834 32.9004 24.4863 32.8975 24.4863C32.8945 24.4893 32.8887 24.4922 32.8857 24.4951C32.8828 24.498 32.8769 24.501 32.8711 24.5039C32.8623 24.5098 32.8535 24.5156 32.8447 24.5215C32.8418 24.5244 32.8389 24.5244 32.8389 24.5244C32.833 24.5273 32.8271 24.5332 32.8213 24.5361C32.8184 24.5391 32.8154 24.5391 32.8125 24.542C32.8037 24.5449 32.7978 24.5508 32.7891 24.5537C32.7891 24.5537 32.7861 24.5537 32.7861 24.5566C32.7832 24.5566 32.7803 24.5596 32.7803 24.5596C32.7773 24.5625 32.7715 24.5625 32.7685 24.5625C32.7656 24.5654 32.7598 24.5654 32.7568 24.5654C32.7539 24.5654 32.7539 24.5654 32.7539 24.5684C32.751 24.5684 32.751 24.5684 32.751 24.5684C32.7451 24.5713 32.7393 24.5713 32.7334 24.5742C32.7217 24.5771 32.71 24.5771 32.6982 24.5801C32.6894 24.583 32.6807 24.5801 32.6689 24.5801C32.666 24.5801 32.666 24.5771 32.6631 24.5771C32.6543 24.5801 32.6484 24.583 32.6396 24.5859C32.6221 24.5859 32.6045 24.5859 32.5869 24.583C32.581 24.583 32.5752 24.5801 32.5693 24.5801H32.5664C32.5635 24.5801 32.5635 24.5771 32.5605 24.5771C32.5605 24.5771 32.5605 24.5801 32.5576 24.5801C32.5576 24.5771 32.5547 24.5801 32.5547 24.5801C32.5459 24.5801 32.5371 24.5801 32.5283 24.5801C32.5225 24.5801 32.5195 24.5801 32.5137 24.5801C32.5107 24.5801 32.5078 24.5801 32.5049 24.5771C32.5019 24.5771 32.499 24.5742 32.4932 24.5742C32.4873 24.5742 32.4814 24.5742 32.4785 24.5713C32.4756 24.5713 32.4697 24.5742 32.4668 24.5742C32.4639 24.5742 32.4609 24.5771 32.458 24.5771C32.4551 24.5771 32.4551 24.5742 32.4521 24.5742C32.4463 24.5713 32.4404 24.5654 32.4346 24.5596V24.5566C32.4316 24.5537 32.4316 24.5508 32.4287 24.5479C32.4287 24.5479 32.4258 24.5479 32.4258 24.5449V24.5479C32.4228 24.5479 32.4228 24.5449 32.4199 24.5449C32.4141 24.5449 32.4111 24.542 32.4053 24.5391C32.4023 24.5391 32.4023 24.5361 32.3994 24.5361C32.3848 24.5273 32.3701 24.5186 32.3555 24.5127C32.3408 24.5039 32.3262 24.4951 32.3115 24.4893C32.2822 24.4717 32.25 24.457 32.2207 24.4395C32.1914 24.4219 32.1621 24.4072 32.1299 24.3896C32.1269 24.3867 32.124 24.3867 32.1211 24.3838C32.1064 24.375 32.0918 24.3662 32.0742 24.3574C32.0625 24.3516 32.0508 24.3457 32.0391 24.3369C31.7637 24.1846 31.4853 24.0293 31.21 23.877C31.0986 23.8154 30.9902 23.7539 30.8789 23.6924C30.7119 23.6016 30.5478 23.5078 30.3809 23.417C30.2637 23.3525 30.1435 23.2852 30.0264 23.2207C29.9092 23.1562 29.7891 23.0889 29.6719 23.0244C29.6221 23.0508 29.5752 23.0771 29.5254 23.1064C28.8779 23.4668 28.2275 23.8242 27.5801 24.1846C27.3633 24.3047 27.1494 24.4248 26.9326 24.5449C26.7275 24.6592 26.4814 24.5889 26.3555 24.4189C26.3467 24.4072 26.3437 24.3955 26.3379 24.3838C26.3027 24.3223 26.2851 24.252 26.2851 24.1729V17.2852H20.6865C20.1855 17.2852 19.6728 17.2441 19.1807 17.3438C18.2344 17.5342 17.3906 18.1875 16.9717 19.0547C16.7402 19.5322 16.6406 20.0332 16.6406 20.5635V36.1729C16.6406 36.627 16.6025 37.0986 16.6553 37.5498C16.7725 38.5459 17.3262 39.4541 18.1846 39.9785C18.709 40.2979 19.3066 40.459 19.9189 40.459H31.834C31.8252 40.4297 31.8135 40.4092 31.8047 40.3916C31.7373 40.2598 31.6758 40.1397 31.6172 40.0107C31.5908 39.9551 31.5674 39.8936 31.5439 39.835C31.5439 39.832 31.541 39.8262 31.541 39.8232C31.541 39.8203 31.5381 39.8174 31.5381 39.8145C31.5293 39.7969 31.5234 39.7793 31.5176 39.7646C31.4971 39.7148 31.4766 39.668 31.456 39.6182C31.4502 39.6035 31.4443 39.5801 31.4385 39.5801H31.4414C31.4414 39.5801 31.4414 39.5742 31.4385 39.5713C31.418 39.5186 31.4004 39.4658 31.3828 39.416C31.3799 39.4072 31.3769 39.3955 31.374 39.3867C31.3682 39.3721 31.3652 39.3574 31.3594 39.3428C31.3506 39.3164 31.3418 39.293 31.333 39.2666C31.3242 39.2402 31.3154 39.2168 31.3096 39.1904C31.3037 39.1758 31.3008 39.1582 31.2949 39.1436C31.2832 39.1084 31.2744 39.0703 31.2627 39.0352C31.2598 39.0205 31.2539 39.0029 31.251 38.9883C31.248 38.9795 31.2451 38.9736 31.2451 38.9648C31.2422 38.9531 31.2393 38.9385 31.2334 38.9268C31.2334 38.9238 31.2305 38.918 31.2305 38.915C31.2305 38.9121 31.2275 38.9063 31.2275 38.9033C31.2275 38.9004 31.2246 38.8945 31.2246 38.8916C31.2217 38.874 31.2158 38.8594 31.2129 38.8418C31.21 38.8242 31.2041 38.8096 31.2012 38.792C31.1953 38.7627 31.1865 38.7363 31.1807 38.707C31.1807 38.7041 31.1807 38.7012 31.1777 38.6982C31.1719 38.6777 31.1689 38.6572 31.1631 38.6338C31.1543 38.5986 31.1484 38.5635 31.1396 38.5283C31.1338 38.4961 31.1279 38.4668 31.1221 38.4346C31.1162 38.4082 31.1133 38.3848 31.1074 38.3584C31.1045 38.3408 31.1016 38.3262 31.0986 38.3086C31.0957 38.291 31.0928 38.2764 31.0898 38.2588C31.0898 38.2529 31.0869 38.25 31.0869 38.2441C31.084 38.2324 31.084 38.2207 31.081 38.209C31.081 38.2061 31.081 38.2061 31.081 38.2031C31.0752 38.1797 31.0723 38.1533 31.0693 38.1299C31.0693 38.127 31.081 38.127 31.081 38.124C31.0664 38.0186 31.0547 37.9131 31.0547 37.8076V37.8047C31.0547 37.7988 31.0576 37.793 31.0547 37.7871C31.0547 37.7695 31.0547 37.752 31.0547 37.7344V37.582C31.0547 37.5762 31.043 37.5674 31.04 37.5615C31.04 37.5557 31.0342 37.5527 31.0312 37.5469C31.0283 37.5352 31.0225 37.5205 31.0225 37.5088C31.0225 37.4854 31.0195 37.4648 31.0195 37.4414C31.0137 37.2656 31.0195 37.0869 31.0254 36.9111C31.0254 36.9082 31.04 36.9023 31.04 36.8994C31.04 36.8994 31.0518 36.8994 31.0518 36.8965C31.0518 36.8789 31.04 36.8613 31.043 36.8467C31.043 36.835 31.0488 36.8203 31.0488 36.8086C31.0488 36.8027 31.0518 36.7998 31.0518 36.7939V36.75C31.0518 36.7236 31.0518 36.6973 31.0547 36.6738L31.0518 36.6709V36.6826H31.0283L31.0254 36.6768L31.0371 36.6738C31.04 36.6387 31.0518 36.6035 31.0518 36.5684V36.5508C31.0518 36.5449 31.04 36.542 31.04 36.5361C31.04 36.5332 31.0342 36.5303 31.0371 36.5273L31.0342 36.5244V36.5215C31.0342 36.5186 31.0342 36.5156 31.0342 36.5127C31.04 36.498 31.0459 36.4805 31.0518 36.4658V36.4629C31.0547 36.457 31.0547 36.4512 31.0547 36.4482C31.0547 36.4453 31.081 36.4453 31.081 36.4424C31.081 36.4395 31.1074 36.4395 31.1074 36.4365V36.4336C31.1074 36.4277 31.081 36.4248 31.081 36.4189C31.081 36.3838 31.0723 36.3486 31.0781 36.3164H31.0723H31.0664C31.0693 36.3018 31.0693 36.2842 31.0693 36.2695C31.0693 36.2666 31.0723 36.2607 31.0752 36.2578V36.2549H31.1045C31.1045 36.252 31.1045 36.252 31.1338 36.249V36.2461C31.1338 36.2432 31.1074 36.2402 31.1103 36.2373H31.1221C31.125 36.2344 31.1367 36.2314 31.1367 36.2285V36.2227V36.208V36.2051C31.1367 36.2021 31.1367 36.2021 31.1367 36.1992C31.1367 36.1992 31.1103 36.1992 31.1103 36.1963H31.0986C31.0986 36.1963 31.0928 36.1963 31.0928 36.1934C31.1016 36.1436 31.1045 36.0938 31.1133 36.0439C31.1133 36.0352 31.1133 36.0234 31.1162 36.0146C31.1191 36 31.1191 35.9854 31.1221 35.9707C31.125 35.9561 31.1279 35.9414 31.1309 35.9268C31.1367 35.9033 31.1396 35.877 31.1455 35.8535C31.1689 35.7305 31.1982 35.6104 31.2275 35.4902C31.2305 35.4756 31.2363 35.4609 31.2393 35.4434C31.2422 35.4346 31.2451 35.4258 31.248 35.4141C31.2598 35.3672 31.2744 35.3203 31.2891 35.2705C31.2949 35.2471 31.3008 35.2266 31.3096 35.2031C31.3242 35.1533 31.3389 35.1064 31.3564 35.0566V35.0537C31.3652 35.0303 31.3711 35.0068 31.3799 34.9834C31.3887 34.96 31.3945 34.9365 31.4033 34.9131C31.4121 34.8897 31.4209 34.8662 31.4297 34.8428C31.4385 34.8193 31.4473 34.7959 31.456 34.7725C31.4707 34.7373 31.4824 34.6992 31.4971 34.6641C31.5117 34.623 31.5293 34.582 31.5469 34.541C31.5615 34.5059 31.5762 34.4736 31.5908 34.4385C31.6084 34.3975 31.6289 34.3535 31.6494 34.3125C31.6611 34.2891 31.6728 34.2627 31.6846 34.2393C31.6875 34.2305 31.6934 34.2217 31.6963 34.2129C31.7109 34.1807 31.7285 34.1484 31.7432 34.1162C31.7519 34.1016 31.7578 34.084 31.7666 34.0693C31.7754 34.0518 31.7842 34.0342 31.793 34.0195C31.7988 34.0078 31.8047 33.999 31.8105 33.9873C31.8105 33.9844 31.8135 33.9844 31.8135 33.9814C31.8135 33.9814 31.8135 33.9785 31.8164 33.9785C31.8252 33.9609 31.834 33.9434 31.8428 33.9287C31.8516 33.9141 31.8574 33.9023 31.8662 33.8877C31.8809 33.8584 31.8984 33.8291 31.916 33.7998C31.9336 33.7676 31.9512 33.7383 31.9717 33.7061C31.9863 33.6826 32.001 33.6562 32.0156 33.6328C32.0156 33.6299 32.0185 33.6299 32.0185 33.627C32.0215 33.6211 32.0273 33.6152 32.0303 33.6094C32.0303 33.6064 32.0332 33.6064 32.0332 33.6064C32.0361 33.6035 32.0361 33.6006 32.0391 33.5977C32.0449 33.5918 32.0478 33.5859 32.0508 33.5801L32.0537 33.5771V33.5742C32.0537 33.5742 32.0537 33.5742 32.0537 33.5713V33.5684V33.5596C32.0537 33.5449 32.0742 33.5303 32.0859 33.5156L32.0889 33.5127C32.0947 33.5039 32.1006 33.4951 32.1064 33.4863C32.1094 33.4834 32.1094 33.4834 32.1094 33.4805L32.1123 33.4775C32.1152 33.4746 32.1152 33.4717 32.1182 33.4688C32.1211 33.4658 32.124 33.4629 32.124 33.46C32.124 33.457 32.1269 33.457 32.1269 33.457C32.1299 33.4541 32.1328 33.4482 32.1328 33.4453C32.1328 33.4424 32.1328 33.4424 32.1357 33.4424C32.1387 33.4395 32.1387 33.4365 32.1416 33.4336L32.1445 33.4365V33.4395V33.4336C32.1445 33.4307 32.1475 33.4277 32.1504 33.4248C32.1562 33.416 32.1592 33.4072 32.165 33.4014L32.168 33.3984C32.168 33.3984 32.168 33.3955 32.1709 33.3955H32.1973C32.2002 33.3926 32.2295 33.3896 32.2295 33.3838C32.2295 33.375 32.2148 33.3633 32.2236 33.3516C32.2236 33.3516 32.2119 33.3486 32.2148 33.3486C32.2148 33.3486 32.209 33.3457 32.209 33.3428L32.206 33.334C32.206 33.3311 32.2031 33.3223 32.2031 33.3223H32.2588V33.3428C32.2588 33.3398 32.2353 33.3398 32.2353 33.3398L32.2236 33.3369H32.2178C32.2178 33.3369 32.2148 33.3369 32.2148 33.334C32.2178 33.3281 32.2207 33.3252 32.2236 33.3193C32.2236 33.3193 32.2236 33.3193 32.2236 33.3164C32.2236 33.3164 32.2236 33.3135 32.2266 33.3135C32.2295 33.3105 32.2324 33.3076 32.2353 33.3047C32.2529 33.2812 32.2705 33.2578 32.2881 33.2344C32.3232 33.1846 32.3613 33.1348 32.3965 33.0879C32.4053 33.0791 32.4111 33.0674 32.4199 33.0586C32.4463 33.0234 32.4726 32.9912 32.499 32.959C32.5078 32.9502 32.5137 32.9414 32.5195 32.9326C32.6016 32.833 32.6836 32.7363 32.7685 32.6396C32.7861 32.6221 32.8008 32.6045 32.8184 32.5869C32.8301 32.5752 32.8418 32.5635 32.8535 32.5488C32.8652 32.5342 32.8769 32.5254 32.8887 32.5137C32.9121 32.4873 32.9385 32.4609 32.9619 32.4375C32.9678 32.4287 32.9766 32.4229 32.9824 32.4141C32.9853 32.4111 32.9883 32.4053 32.9941 32.4023L33.0059 32.3906C33.0088 32.3877 33.0088 32.3877 33.0117 32.3848C33.0117 32.3848 33.0117 32.3848 33.0117 32.3818L33.0146 32.3789L33.0176 32.373C33.0176 32.3701 33.0264 32.3613 33.0322 32.3584H33.0586C33.0703 32.3291 33.082 32.3203 33.0937 32.3086V32.2998C33.1055 32.2998 33.1143 32.2822 33.126 32.2734C33.1318 32.2676 33.1377 32.2646 33.1435 32.2588C33.1465 32.2559 33.1494 32.2529 33.1553 32.25C33.1611 32.2441 33.1406 32.2383 33.1699 32.2324V32.2412H33.1728H33.1816C33.1846 32.2412 33.1875 32.2266 33.1904 32.2236V32.2207L33.1934 32.2148L33.1992 32.209C33.1992 32.209 33.1992 32.2061 33.2021 32.2061C33.2021 32.2061 33.2021 32.2061 33.2021 32.2031C33.2021 32.2002 33.2021 32.2002 33.2051 32.1973H33.2021V32.1943C33.2021 32.1943 33.2109 32.1943 33.2109 32.1914C33.2226 32.1797 33.2373 32.1709 33.249 32.1592C33.2695 32.1416 33.29 32.1211 33.3105 32.1035C33.3193 32.0947 33.331 32.0859 33.3428 32.0771C33.3486 32.0742 33.3545 32.0684 33.3574 32.0625C33.3633 32.0596 33.3662 32.0537 33.3721 32.0479C33.3809 32.0391 33.3896 32.0303 33.4014 32.0244L33.4043 32.0215C33.4307 31.998 33.46 31.9746 33.4893 31.9541C33.4922 31.9512 33.4951 31.9482 33.498 31.9453C33.5127 31.9336 33.5273 31.9219 33.542 31.9102V31.916C33.5508 31.916 33.5566 31.9014 33.5654 31.8955C33.5684 31.8926 33.5713 31.8896 33.5713 31.8896L33.5742 31.8867L33.5771 31.8838C33.583 31.8779 33.5918 31.8721 33.5976 31.8662C33.5976 31.8662 33.6006 31.8662 33.6006 31.8633C33.6064 31.8604 33.6094 31.8545 33.6152 31.8516C33.6182 31.8486 33.6416 31.8486 33.6416 31.8457C33.6416 31.8457 33.665 31.8457 33.665 31.8428C33.665 31.8428 33.6445 31.8428 33.6475 31.8398L33.6387 31.8369L33.6533 31.834H33.665C33.665 31.834 33.6475 31.8311 33.6504 31.8311C33.6855 31.8018 33.7119 31.7754 33.7471 31.749C33.75 31.7461 33.7471 31.7461 33.75 31.7432C33.7529 31.7402 33.75 31.7402 33.7529 31.7402V31.7373V31.7549V31.7695L33.7559 31.752V31.7432V31.7373C33.7588 31.7344 33.7588 31.7314 33.7617 31.7314C33.7646 31.7285 33.7676 31.7256 33.7705 31.7227C33.7764 31.7168 33.7822 31.7139 33.7851 31.708V31.7285V31.7432H33.7881C33.7881 31.7432 33.7881 31.7227 33.791 31.7227C33.7939 31.7197 33.8115 31.708 33.8144 31.7051C33.8174 31.7051 33.8057 31.6934 33.835 31.6904C33.835 31.6904 33.8232 31.6904 33.8262 31.6904H33.832H33.8379H33.8291C33.8613 31.667 33.8877 31.6436 33.9199 31.6201C33.9258 31.6172 33.9287 31.6113 33.9346 31.6084C33.958 31.5908 33.9873 31.5703 34.0137 31.5527H34.0107C34.0254 31.541 34.04 31.5352 34.0576 31.5264C34.0605 31.5264 34.0605 31.5234 34.0605 31.5234C34.0723 31.5176 34.0869 31.5088 34.0986 31.4971C34.0986 31.4971 34.1016 31.4971 34.1016 31.4941C34.1016 31.4941 34.1016 31.4941 34.1016 31.4912L34.1045 31.4854L34.1074 31.4795C34.1074 31.4795 34.1074 31.4795 34.1103 31.4795H34.1133C34.1162 31.4795 34.1162 31.4795 34.1191 31.4766C34.1191 31.4766 34.1191 31.4766 34.1221 31.4766C34.1426 31.459 34.1631 31.4414 34.1836 31.4297C34.1836 31.4297 34.1836 31.4209 34.1865 31.4209C34.1894 31.4209 34.1894 31.4268 34.1924 31.4268L34.1953 31.4297C34.1982 31.4268 34.2041 31.4268 34.207 31.4268V31.4238C34.207 31.4238 34.207 31.4238 34.21 31.4238H34.2129H34.2158C34.2187 31.4238 34.2187 31.4209 34.2187 31.4209V31.4238C34.2187 31.4209 34.2246 31.418 34.2305 31.415C34.2334 31.4121 34.2363 31.4092 34.2393 31.4092L34.2422 31.4062C34.2451 31.4062 34.2451 31.4033 34.2451 31.4033C34.248 31.4033 34.248 31.4004 34.251 31.4004C34.2539 31.4004 34.2539 31.3975 34.2568 31.3975L34.2598 31.3945L34.2627 31.3916C34.2627 31.3916 34.2656 31.3916 34.2656 31.3887C34.2685 31.3887 34.2685 31.3857 34.2715 31.3857C34.2773 31.3828 34.2832 31.3799 34.2861 31.377C34.292 31.374 34.2949 31.3711 34.3008 31.3682C34.3066 31.3652 34.3096 31.3623 34.3154 31.3594C34.3184 31.3594 34.3184 31.3564 34.3213 31.3564C34.3271 31.3535 34.3301 31.3506 34.3359 31.3477C34.3389 31.3477 34.3389 31.3447 34.3418 31.3447C34.3418 31.3418 34.3447 31.3418 34.3477 31.3418C34.3477 31.3418 34.3476 31.3389 34.3506 31.3389C34.3535 31.3389 34.3564 31.3389 34.3594 31.3389C34.3623 31.3359 34.3623 31.3359 34.3652 31.3359C34.3652 31.3359 34.3652 31.3359 34.3682 31.3359C34.3711 31.3359 34.3711 31.333 34.374 31.333H34.3769C34.3857 31.3301 34.3916 31.3271 34.4004 31.3242C34.4092 31.3213 34.418 31.3154 34.4268 31.3154C34.4297 31.2861 34.4355 31.3066 34.4385 31.3008V31.2979C34.4502 31.2891 34.4619 31.2803 34.4736 31.2773V31.2803V31.2861V31.2832C34.4736 31.2832 34.4736 31.2832 34.4736 31.2861V31.2891C34.4766 31.2891 34.4795 31.2861 34.4824 31.2832C34.4883 31.2803 34.4912 31.2744 34.4971 31.2715C34.5176 31.2598 34.5381 31.2451 34.5586 31.2334C34.5615 31.2305 34.5644 31.2275 34.5674 31.2275L34.5703 31.2246C34.5703 31.2246 34.5703 31.2246 34.5732 31.2246C34.5762 31.2217 34.5791 31.2217 34.585 31.2187C34.5908 31.2158 34.5996 31.21 34.6055 31.207C34.6113 31.2041 34.6143 31.2012 34.6201 31.1982C34.6201 31.1982 34.6406 31.1982 34.6377 31.1982C34.6348 31.1982 34.6553 31.1982 34.6553 31.1982H34.6377C34.6377 31.1982 34.6435 31.1982 34.6435 31.1953C34.7139 31.1572 34.8018 31.1221 34.8603 31.0869V31.1162H34.8428C34.8691 31.0869 34.8984 31.0723 34.9248 31.0576C34.9336 31.0547 34.9512 31.0459 34.957 31.043C34.96 31.04 34.9482 31.0371 34.9775 31.0342C34.9775 31.0342 34.9687 31.0312 34.9717 31.0312C34.9746 31.0283 34.9717 31.0283 34.9717 31.0254H34.9687C34.9717 31.0225 34.9746 31.0195 34.9775 31.0195C34.9805 31.0166 34.9863 31.0137 34.9893 31.0137C35.0039 31.0049 35.0185 30.999 35.0332 30.9932C35.0332 30.9932 35.0449 30.9932 35.0449 30.9902C35.0478 30.9873 35.0361 30.9873 35.0654 30.9844V30.9375H35.0596C35.0684 30.9375 35.0742 30.9404 35.083 30.9375C35.083 30.9375 35.083 30.9404 35.0859 30.9375C35.0889 30.9375 35.0918 30.9375 35.0918 30.9375C35.0976 30.9346 35.1006 30.9346 35.1064 30.9316H35.1094C35.1152 30.9287 35.1182 30.9258 35.124 30.9229H35.1269C35.1416 30.9141 35.1445 30.9082 35.1592 30.9023L35.1504 30.9053V30.917C35.1504 30.9141 35.1738 30.9111 35.1768 30.9082V30.9053H35.1826C35.1826 30.9053 35.1475 30.9023 35.206 30.9023H35.1943V30.8994C35.1943 30.8965 35.1943 30.8936 35.1943 30.8936L35.1914 30.8848H35.1973H35.2002H35.2031C35.2031 30.8848 35.2031 30.8848 35.206 30.8848H35.209H35.2119H35.2148C35.2148 30.8848 35.2178 30.8877 35.2178 30.8848H35.2207C35.2236 30.8848 35.2236 30.8848 35.2236 30.8848C35.2236 30.8848 35.2236 30.8848 35.2266 30.8848C35.2266 30.8848 35.2266 30.8848 35.2295 30.8848V30.8818H35.2324C35.2324 30.8818 35.2324 30.8789 35.2353 30.8789C35.2383 30.8789 35.2383 30.8789 35.2383 30.876C35.2383 30.876 35.2412 30.876 35.2412 30.873C35.2412 30.873 35.2441 30.873 35.2441 30.8701C35.2471 30.8701 35.2471 30.8672 35.25 30.8672C35.2559 30.8643 35.2588 30.8613 35.2646 30.8613C35.2646 30.8613 35.2676 30.8613 35.2676 30.8584C35.2676 30.8584 35.2676 30.8584 35.2705 30.8584H35.2734C35.2793 30.8555 35.2822 30.8525 35.2881 30.8525H35.291H35.2939C35.2969 30.8525 35.2998 30.8525 35.3027 30.8525H35.3057C35.3086 30.8525 35.3115 30.8525 35.3144 30.8525L35.3174 30.8467C35.3262 30.8438 35.3379 30.8379 35.3496 30.832C35.3555 30.8291 35.3643 30.8262 35.373 30.8232C35.376 30.8232 35.3789 30.8203 35.3818 30.8203C35.3848 30.8203 35.3994 30.8174 35.3994 30.8174C35.4053 30.8145 35.3994 30.8115 35.4287 30.8086V30.8174V30.8203L35.417 30.8174L35.4111 30.8145L35.4082 30.8115C35.4082 30.8115 35.4053 30.8086 35.4023 30.8086H35.4141L35.4258 30.8057V30.8027H35.4199L35.4141 30.7939C35.4199 30.7939 35.4287 30.791 35.4346 30.7881L35.4375 30.791V30.7939H35.4404H35.4434C35.4521 30.7939 35.4609 30.7939 35.4697 30.791H35.4726C35.4756 30.7881 35.4873 30.7852 35.4902 30.7852C35.4932 30.7822 35.5078 30.7793 35.5078 30.7793L35.4873 30.7646V30.7705C35.4873 30.7705 35.4873 30.7705 35.4902 30.7705C35.5078 30.7705 35.4902 30.7676 35.4902 30.7676H35.4932H35.4961L35.499 30.7646C35.499 30.7646 35.499 30.7646 35.4961 30.7646C35.4961 30.7646 35.4961 30.7646 35.499 30.7646C35.499 30.7646 35.499 30.7646 35.5019 30.7646H35.5078H35.5107H35.5312C35.5312 30.7617 35.5283 30.7617 35.5312 30.7617C35.5342 30.7617 35.5312 30.7588 35.5371 30.7588C35.5371 30.7588 35.5371 30.7588 35.54 30.7588C35.5459 30.7559 35.5518 30.7529 35.5605 30.7529H35.5635C35.5664 30.7529 35.5693 30.75 35.5723 30.75C35.5752 30.75 35.581 30.7471 35.584 30.7471C35.5869 30.7471 35.5928 30.7441 35.5986 30.7441H35.6016C35.6045 30.7441 35.6074 30.7412 35.6103 30.7412C35.6133 30.7412 35.6133 30.7412 35.6162 30.7412C35.6191 30.7412 35.6221 30.7412 35.625 30.7412H35.6484V30.7295C35.6484 30.7295 35.6338 30.7412 35.6367 30.7412H35.6426C35.6426 30.7412 35.6426 30.7354 35.6426 30.7324C35.6426 30.7295 35.6455 30.7266 35.6455 30.7236C35.6484 30.7178 35.6484 30.7178 35.6514 30.7207C35.6543 30.7236 35.6543 30.7236 35.6572 30.7236C35.6601 30.7207 35.666 30.7178 35.6689 30.7148C35.6719 30.7119 35.6748 30.7148 35.6777 30.7119H35.6807H35.6836C35.6924 30.7119 35.7012 30.7119 35.71 30.7119C35.7275 30.6826 35.7422 30.6973 35.7598 30.6914C35.7656 30.6885 35.7685 30.6855 35.7744 30.6855C35.7803 30.6826 35.7832 30.6826 35.7891 30.6797C35.8154 30.6709 35.8447 30.6621 35.8711 30.6533C35.8828 30.6504 35.8945 30.6475 35.9062 30.6445H35.9092C35.9238 30.6387 35.9385 30.6357 35.956 30.6328C35.9766 30.627 35.9971 30.6211 36.0176 30.6152C36.0264 30.6123 36.0351 30.6094 36.0439 30.6094C36.0527 30.6064 36.0615 30.6035 36.0703 30.6006C36.0762 30.5977 36.082 30.5977 36.0908 30.5947C36.0967 30.5947 36.0996 30.5918 36.1055 30.5918C36.1113 30.5889 36.1172 30.5889 36.123 30.5859C36.126 30.5859 36.1289 30.583 36.1318 30.583C36.1465 30.5801 36.1641 30.5742 36.1787 30.5713C36.1816 30.5713 36.1846 30.5859 36.1875 30.5859C36.1934 30.583 36.1992 30.5977 36.2051 30.5977V30.5801L36.208 30.5684C36.2139 30.5684 36.2197 30.5625 36.2227 30.5625C36.2314 30.5596 36.2402 30.5566 36.249 30.5566C36.2637 30.5537 36.2754 30.5508 36.29 30.5479C36.293 30.5479 36.2959 30.5449 36.2988 30.5449C36.3252 30.5391 36.3486 30.5332 36.375 30.5273C36.3867 30.5244 36.3984 30.5215 36.4101 30.5215C36.4277 30.5186 36.4424 30.5156 36.46 30.5098C36.4893 30.5039 36.5156 30.498 36.5449 30.4922C36.5625 30.4893 36.5801 30.4863 36.5976 30.4834C36.6064 30.4805 36.6182 30.4805 36.6269 30.4775C36.6357 30.4746 36.6475 30.4746 36.6562 30.4717C36.6738 30.4687 36.6914 30.4658 36.7119 30.4629C36.7148 30.4629 36.7207 30.4629 36.7236 30.46C36.7441 30.457 36.7646 30.4541 36.7851 30.4512C36.791 30.4512 36.7998 30.4482 36.8057 30.4482C36.8291 30.4453 36.8555 30.4395 36.8789 30.4365C36.8877 30.4336 36.8994 30.4336 36.9111 30.4336C36.9199 30.4307 36.9316 30.4307 36.9404 30.4307C36.9492 30.4307 36.958 30.4277 36.9668 30.4277C36.9844 30.4248 37.0049 30.4219 37.0225 30.4219C37.0459 30.4189 37.0693 30.416 37.0928 30.4131C37.1016 30.4131 37.1074 30.4102 37.1162 30.4102C37.1221 30.4102 37.1279 30.4102 37.1338 30.4072C37.1455 30.4072 37.1572 30.4043 37.1689 30.4043C37.1719 30.4043 37.1719 30.4043 37.1748 30.4043C37.1894 30.4014 37.207 30.4014 37.2217 30.4014C37.2363 30.4014 37.248 30.3984 37.2627 30.3984C37.2656 30.3984 37.2715 30.3984 37.2744 30.3984C37.2803 30.3984 37.2832 30.3984 37.2891 30.3984C37.3096 30.3955 37.3301 30.3955 37.3476 30.3955C37.3682 30.3926 37.3916 30.3926 37.4121 30.3926C37.4209 30.3926 37.4268 30.3926 37.4355 30.3896C37.4502 30.3896 37.4619 30.3867 37.4766 30.3867C37.4824 30.3867 37.4883 30.3867 37.4941 30.3867C37.6875 30.3779 37.8809 30.375 38.0742 30.3838C38.083 30.3838 38.0889 30.3838 38.0977 30.3838C38.1182 30.3838 38.1357 30.3867 38.1562 30.3867C38.165 30.3867 38.1738 30.3867 38.1826 30.3867C38.1855 30.3867 38.1885 30.3867 38.1914 30.3867C38.1943 30.3867 38.1973 30.3867 38.2002 30.3867C38.206 30.3867 38.2119 30.3867 38.2207 30.3867C38.2236 30.3867 38.2266 30.3867 38.2295 30.3867C38.2324 30.3867 38.2353 30.3867 38.2383 30.3867C38.2441 30.3867 38.25 30.3867 38.2588 30.3867C38.2734 30.3867 38.2881 30.3896 38.3027 30.3896C38.3174 30.3896 38.332 30.3926 38.3467 30.3926C38.373 30.3955 38.3965 30.3984 38.4199 30.4014C38.4228 30.4014 38.4258 30.4131 38.4287 30.4131C38.4346 30.4131 38.4404 30.4219 38.4463 30.4219H38.5195C38.5723 30.4219 38.625 30.4248 38.6777 30.4336C38.7041 30.4365 38.7305 30.4365 38.7568 30.4395C38.7832 30.4424 38.8096 30.4453 38.8359 30.4482C38.9414 30.4629 39.0469 30.4805 39.1523 30.501C39.1553 30.501 39.1582 30.501 39.1641 30.5039C39.1846 30.5068 39.2051 30.5127 39.2256 30.5156C39.2549 30.5215 39.2842 30.5273 39.3135 30.5332C39.331 30.5361 39.3516 30.542 39.3691 30.5449C39.3809 30.5479 39.3926 30.5508 39.4043 30.5537C39.4336 30.5596 39.46 30.5684 39.4893 30.5742C39.6211 30.6064 39.7529 30.6445 39.8848 30.6855C39.9111 30.6943 39.9434 30.7031 39.9697 30.7119C40.0019 30.7207 40.0342 30.7324 40.0664 30.7441C40.0723 30.7471 40.081 30.75 40.0869 30.75C40.1367 30.7676 40.1865 30.7852 40.2363 30.8057C40.2598 30.8145 40.2861 30.8232 40.3096 30.835C40.3506 30.8496 40.3887 30.8672 40.4297 30.8848C40.4414 30.8906 40.4531 30.8936 40.4678 30.8994C40.4853 30.9053 40.5 30.9141 40.5176 30.9199C40.541 30.9287 40.585 30.9404 40.6084 30.9492C40.8193 31.043 41.0215 31.1484 41.2559 31.2627V31.2656C41.2559 31.2803 41.2793 31.2949 41.3027 31.3096H41.2939H41.291H41.2881C41.2939 31.3125 41.2969 31.3154 41.2998 31.3184C41.3027 31.3213 41.3057 31.3242 41.3115 31.3271C41.335 31.3418 41.3613 31.3564 41.3848 31.374C41.3877 31.374 41.3877 31.377 41.3906 31.377C41.3965 31.3799 41.4023 31.3828 41.4082 31.3857C41.4287 31.4004 41.4521 31.4121 41.4726 31.4268V31.4326V31.4297H41.4756C41.4756 31.4297 41.4785 31.4297 41.4785 31.4326C41.4814 31.4355 41.4844 31.4355 41.4873 31.4385C41.4873 31.4385 41.4902 31.4385 41.4902 31.4414C41.4932 31.4414 41.4932 31.4443 41.4961 31.4443H41.499C41.5078 31.4502 41.5137 31.4531 41.5225 31.459C41.54 31.4707 41.5576 31.4824 41.5752 31.4941C41.5928 31.5059 41.6103 31.5176 41.6279 31.5293L41.6309 31.5322C41.6338 31.5352 41.6367 31.5381 41.6396 31.541C41.7832 31.6377 41.9355 31.7432 42.0703 31.8516C42.0762 31.8545 42.0703 31.8604 42.0996 31.8633V21.9697C42.1289 21.4805 42.1465 20.9912 42.1289 20.502ZM19.96 31.9629H22.8574C23.2207 31.9629 23.4902 32.2559 23.5078 32.6074C23.5225 32.959 23.1973 33.252 22.8574 33.252H19.96C19.5967 33.252 19.3271 32.959 19.3096 32.6074C19.2949 32.2559 19.6201 31.9629 19.96 31.9629ZM27.0117 36.5625H19.96C19.5967 36.5625 19.3271 36.2695 19.3096 35.918C19.2949 35.5664 19.6201 35.2734 19.96 35.2734H27.0117C27.375 35.2734 27.6445 35.5664 27.6621 35.918C27.6768 36.2695 27.3516 36.5625 27.0117 36.5625Z" fill="#FF9871"/>
<path d="M38.5 43C41.5376 43 44 40.5376 44 37.5C44 34.4624 41.5376 32 38.5 32C35.4624 32 33 34.4624 33 37.5C33 40.5376 35.4624 43 38.5 43Z" fill="#FF9871"/>
<path d="M38.5 43C41.5376 43 44 40.5376 44 37.5C44 34.4624 41.5376 32 38.5 32C35.4624 32 33 34.4624 33 37.5C33 40.5376 35.4624 43 38.5 43Z" fill="#FF9871" stroke="#FF9871" stroke-miterlimit="10" stroke-linecap="round"/>
<path d="M38 35V39.6667H41.5" stroke="white" stroke-miterlimit="10" stroke-linecap="round" stroke-linejoin="round"/>
</svg>
