<svg width="66" height="85" viewBox="0 0 66 85" fill="none" xmlns="http://www.w3.org/2000/svg">
<path fill-rule="evenodd" clip-rule="evenodd" d="M33.0006 38.087H33.0045C33.0212 38.0615 36.7026 32.4373 37.2776 31.5562C37.2776 31.5522 37.2776 31.5522 37.2796 31.5503V31.5464C37.2855 31.5464 37.3041 31.514 37.3061 31.5091C37.3061 31.5061 37.31 31.5061 37.31 31.5061V31.5032C37.312 31.5012 37.312 31.4973 37.3159 31.4973C37.3178 31.4953 37.3178 31.4914 37.3178 31.4895C37.3178 31.4895 37.3218 31.4895 37.3218 31.4855L37.3237 31.4836H37.3267V31.4796C37.3267 31.4767 37.3286 31.4767 37.3286 31.4738C37.3492 31.4541 37.3178 31.459 39.3381 31.463C40.3301 31.4649 41.8166 31.4669 44.0449 31.4659C44.1587 31.4659 44.2274 31.3482 44.1725 31.2491C41.3888 26.3225 43.1137 29.3809 37.3404 19.1411C36.734 17.9274 35.7999 16.6636 34.44 16.6636H33.0035C32.6513 16.6636 32.3363 16.6538 32.0449 16.6538C31.1432 16.6538 30.4828 16.75 29.7205 17.5359C29.5605 17.6968 29.6214 17.9608 29.8196 18.0491H29.8254C29.8264 18.05 29.8657 18.0638 29.8824 18.0726C30.06 18.1698 29.9893 18.4464 29.7813 18.4464C29.7479 18.4484 23.744 18.5249 23.7136 18.5249C20.8181 18.5338 20.6876 19.5385 21.2331 20.4491C21.3617 20.6561 22.1535 21.7442 22.2948 21.9385C22.3576 22.0258 22.4861 22.015 22.5371 21.9209C22.7677 21.4931 23.5595 21.5078 24.6133 21.5235C24.9607 21.5284 25.3355 21.5333 25.729 21.5225C26.0537 21.5225 26.4374 21.7854 26.5855 22.068C26.5855 22.07 26.5855 22.07 26.5895 22.0739C26.7739 22.4448 26.6572 22.643 26.5718 22.8549C26.5689 22.8549 26.5689 22.8589 26.5659 22.8608C25.4238 24.889 23.3594 28.5449 21.8297 31.25C21.8071 31.2962 21.8071 31.3511 21.8336 31.3953C21.8591 31.4414 21.9053 31.4679 21.9573 31.4679H28.5931C28.703 31.4679 28.5214 31.2383 30.8341 34.7784C30.8626 34.7784 30.9774 34.9933 32.9996 38.088L33.0006 38.087Z" fill="url(#paint0_linear_18_2719)"/>
<path fill-rule="evenodd" clip-rule="evenodd" d="M66 51.7206V10.1857C66 10.1053 65.9362 10.0415 65.8547 10.0415H0.145212C0.0676977 10.0415 0.000976562 10.1053 0.000976562 10.1857V51.7206C0.000976562 60.5406 3.43613 68.8277 9.66769 75.0642C15.8963 81.2977 24.1854 84.7319 33.0005 84.7319C51.1977 84.7319 66 69.9237 66 51.7206ZM3.34685 13.3795C3.34096 13.3756 3.33507 13.3736 3.33213 13.3668C3.33017 13.3668 3.32428 13.3648 3.32035 13.3609C3.32035 13.3589 3.31839 13.3589 3.32035 13.355C3.32035 13.353 3.32035 13.353 3.32428 13.353C62.9121 13.353 62.658 13.3265 62.6865 13.355C62.6865 13.3609 62.6796 13.3668 62.6727 13.3668C62.4902 13.7308 53.6153 21.0211 47.2003 24.5377C47.2003 24.5406 47.1964 24.5406 47.1944 24.5435C45.8953 25.1342 45.1653 26.6845 45.652 28.1386C45.6539 28.1416 45.6539 28.1445 45.6579 28.1484C45.6775 28.2073 45.7452 28.3879 45.755 28.3986C45.7687 28.4477 45.9738 28.8265 49.1813 34.5664C49.2078 34.6096 49.2078 34.6646 49.1813 34.7077C49.1568 34.7548 49.1087 34.7803 49.0577 34.7803C45.4008 34.7901 43.092 34.7852 41.632 34.7813C38.9161 34.7725 39.1388 34.7636 39.079 34.847C35.9705 39.6009 35.1954 40.7813 35.0512 41.004C35.0482 41.006 35.0482 41.0089 35.0453 41.0119C35.0453 41.0158 35.0394 41.0188 35.0355 41.0217V41.0237C35.0355 41.0276 35.0355 41.0276 35.0335 41.0296C35.0306 41.0354 35.0276 41.0384 35.0237 41.0413V41.0452L35.0217 41.0472C33.1751 43.8495 33.0682 44.2116 32.8817 43.9496C32.2557 42.9929 27.1369 35.1659 26.9181 34.8392C26.9181 34.8372 26.9161 34.8333 26.9161 34.8333C26.9161 34.8314 26.9122 34.8314 26.9122 34.8314C26.9092 34.8255 26.9063 34.8215 26.9043 34.8206V34.8166V34.8147C26.9014 34.8107 26.8984 34.8088 26.8984 34.8049L26.8945 34.8029C26.8925 34.8029 26.8925 34.8 26.8925 34.8C26.8925 34.798 26.8925 34.798 26.8886 34.7941L26.8867 34.7921C26.8867 34.7892 26.8867 34.7892 26.8827 34.7862C26.8827 34.7627 25.2736 34.7715 23.3416 34.7793C20.4647 34.7921 16.8736 34.8049 16.8206 34.7107C16.745 34.5831 16.8392 34.587 17.7468 32.9141C17.7625 32.8856 20.1233 28.6616 20.1429 28.6224C20.1714 28.5929 20.2852 28.328 20.3068 28.2672C20.3068 28.2672 20.3068 28.2642 20.3107 28.2613C20.3313 28.2093 20.349 28.1583 20.3656 28.1053V28.0994C20.3666 28.0945 20.4069 27.9591 20.4088 27.9522C20.4088 27.9463 20.4088 27.9434 20.4118 27.9385C20.4147 27.9237 20.4196 27.909 20.4235 27.8953C20.4235 27.8894 20.4235 27.8865 20.4255 27.8835C20.7297 26.5648 20.1174 25.1754 18.8055 24.5426H18.7997C15.9689 23.0315 9.12706 18.466 3.34586 13.3844L3.34685 13.3795ZM13.2814 30.5838C10.5223 29.1051 6.29926 26.4765 3.37726 24.5916C3.33703 24.5651 3.31152 24.52 3.31152 24.47C3.34194 20.1517 3.23597 20.2263 3.39492 20.1458C3.443 20.1233 3.50384 20.1321 3.54799 20.1664C10.2564 25.6327 14.5894 27.5803 14.6649 27.7668C14.711 27.7844 14.7542 27.804 14.8003 27.8256C14.8023 27.8276 14.8298 27.8453 14.8347 27.8453C14.8386 27.8492 14.8445 27.8511 14.8464 27.8511C15.6226 28.2799 15.9306 29.2189 15.5794 30.0235C15.5764 30.0255 15.5764 30.0314 15.5745 30.0353L15.4793 30.2129V30.2188C15.4724 30.2315 15.4675 30.2403 15.4626 30.2472V30.2482C15.4626 30.2502 15.4616 30.2521 15.4597 30.2551C15.391 30.3846 15.1045 30.9291 14.0948 32.8503C14.4883 32.0085 14.1341 31.0763 13.4443 30.675V30.6711C13.3972 30.6466 13.355 30.6191 13.3079 30.5985C13.306 30.5965 13.302 30.5926 13.2961 30.5906H13.2942C13.2903 30.5877 13.2854 30.5847 13.2824 30.5818L13.2814 30.5838ZM51.8865 32.8081V32.8022C51.8718 32.7738 50.5442 30.2286 50.5158 30.2001L50.4353 30.0421C50.4333 30.0382 50.4333 30.0382 50.4333 30.0363C50.0781 29.2572 50.3646 28.2838 51.1682 27.8492C51.1977 27.8197 51.3252 27.7893 51.3439 27.7501C59.2484 23.3161 62.295 20.0045 62.6109 20.1458C62.66 20.1723 62.6914 20.2214 62.6914 20.2753C62.6649 24.624 62.7522 24.5102 62.6247 24.5916C59.7978 26.4225 55.4757 29.11 52.7244 30.5838C52.7225 30.5867 52.7185 30.5897 52.7126 30.5926H52.7107C52.7077 30.5946 52.7019 30.5985 52.6989 30.6004C52.6498 30.6211 52.6096 30.6446 52.5664 30.6701C52.5664 30.6721 52.5635 30.6721 52.5635 30.6721H52.5606C52.5458 30.7015 51.7471 31.1067 51.7471 32.1233C51.7471 32.3686 51.8021 32.606 51.8973 32.815C51.8973 32.8209 51.8992 32.8238 51.9032 32.8297H51.8992L51.8855 32.8071L51.8865 32.8081ZM3.3125 34.6341C3.339 29.8695 3.20261 29.3583 3.52837 29.5437C6.27669 31.0842 9.35371 32.7385 9.38805 32.7571C9.39198 32.7571 9.39394 32.7591 9.39786 32.7591C12.7575 34.5488 13.407 34.7784 13.1549 34.7784C9.61667 34.7558 7.34913 34.7666 5.89795 34.7774C5.08061 34.7833 4.52133 34.7892 4.13965 34.7892C3.28797 34.7892 3.31349 34.7597 3.31349 34.6341H3.3125ZM52.8794 34.692C61.3815 30.4297 62.6924 29.0933 62.6924 29.6664C62.6305 34.6351 62.8238 34.7774 62.5481 34.7774C59.9794 34.7735 58.068 34.7764 56.6561 34.7784C55.7602 34.7803 55.0646 34.7813 54.5278 34.7813C52.8922 34.7813 52.7293 34.7666 52.8804 34.691L52.8794 34.692ZM57.3507 38.0899C63.0721 38.0703 62.6924 38.0516 62.6924 38.2312C62.6345 41.1012 62.8229 41.3995 62.5481 41.3995C55.9143 41.3916 51.1211 41.3985 47.6634 41.4044C38.4294 41.422 38.7179 41.4387 38.8925 41.1767C41.0335 37.926 40.8608 38.087 40.9913 38.087C44.5913 38.0977 47.5947 38.1017 50.1007 38.1017C53.2287 38.1017 55.5807 38.0958 57.3507 38.0899ZM3.31349 38.2312C3.31349 38.1497 3.37923 38.087 3.45674 38.087H25.0165C25.0656 38.087 25.1117 38.1134 25.1362 38.1537C25.3305 38.451 26.7895 40.6832 27.1123 41.1767C27.3135 41.4789 26.8925 41.4348 21.5195 41.3896C18.0118 41.3602 12.3925 41.3318 3.45576 41.3985C3.17906 41.3985 3.37236 41.0766 3.3125 38.2302L3.31349 38.2312Z" fill="url(#paint1_linear_18_2719)"/>
<path fill-rule="evenodd" clip-rule="evenodd" d="M33.0006 38.087H33.0045C33.0212 38.0615 36.7026 32.4373 37.2776 31.5562C37.2776 31.5522 37.2776 31.5522 37.2796 31.5503V31.5464C37.2855 31.5464 37.3041 31.514 37.3061 31.5091C37.3061 31.5061 37.31 31.5061 37.31 31.5061V31.5032C37.312 31.5012 37.312 31.4973 37.3159 31.4973C37.3178 31.4953 37.3178 31.4914 37.3178 31.4895C37.3178 31.4895 37.3218 31.4895 37.3218 31.4855L37.3237 31.4836H37.3267V31.4796C37.3267 31.4767 37.3286 31.4767 37.3286 31.4738C37.3492 31.4541 37.3178 31.459 39.3381 31.463C40.3301 31.4649 41.8166 31.4669 44.0449 31.4659C44.1587 31.4659 44.2274 31.3482 44.1725 31.2491C41.3888 26.3225 43.1137 29.3809 37.3404 19.1411C36.734 17.9274 35.7999 16.6636 34.44 16.6636H33.0035C32.6513 16.6636 32.3363 16.6538 32.0449 16.6538C31.1432 16.6538 30.4828 16.75 29.7205 17.5359C29.5605 17.6968 29.6214 17.9608 29.8196 18.0491H29.8254C29.8264 18.05 29.8657 18.0638 29.8824 18.0726C30.06 18.1698 29.9893 18.4464 29.7813 18.4464C29.7479 18.4484 23.744 18.5249 23.7136 18.5249C20.8181 18.5338 20.6876 19.5385 21.2331 20.4491C21.3617 20.6561 22.1535 21.7442 22.2948 21.9385C22.3576 22.0258 22.4861 22.015 22.5371 21.9209C22.7677 21.4931 23.5595 21.5078 24.6133 21.5235C24.9607 21.5284 25.3355 21.5333 25.729 21.5225C26.0537 21.5225 26.4374 21.7854 26.5855 22.068C26.5855 22.07 26.5855 22.07 26.5895 22.0739C26.7739 22.4448 26.6572 22.643 26.5718 22.8549C26.5689 22.8549 26.5689 22.8589 26.5659 22.8608C25.4238 24.889 23.3594 28.5449 21.8297 31.25C21.8071 31.2962 21.8071 31.3511 21.8336 31.3953C21.8591 31.4414 21.9053 31.4679 21.9573 31.4679H28.5931C28.703 31.4679 28.5214 31.2383 30.8341 34.7784C30.8626 34.7784 30.9774 34.9933 32.9996 38.088L33.0006 38.087Z" fill="url(#paint2_linear_18_2719)"/>
<path fill-rule="evenodd" clip-rule="evenodd" d="M33.0006 38.087H33.0045C33.0212 38.0615 36.7026 32.4373 37.2776 31.5562C37.2776 31.5522 37.2776 31.5522 37.2796 31.5503V31.5464C37.2855 31.5464 37.3041 31.514 37.3061 31.5091C37.3061 31.5061 37.31 31.5061 37.31 31.5061V31.5032C37.312 31.5012 37.312 31.4973 37.3159 31.4973C37.3178 31.4953 37.3178 31.4914 37.3178 31.4895C37.3178 31.4895 37.3218 31.4895 37.3218 31.4855L37.3237 31.4836H37.3267V31.4796C37.3267 31.4767 37.3286 31.4767 37.3286 31.4738C37.3492 31.4541 37.3178 31.459 39.3381 31.463C40.3301 31.4649 41.8166 31.4669 44.0449 31.4659C44.1587 31.4659 44.2274 31.3482 44.1725 31.2491C41.3888 26.3225 43.1137 29.3809 37.3404 19.1411C36.734 17.9274 35.7999 16.6636 34.44 16.6636H33.0035C32.6513 16.6636 32.3363 16.6538 32.0449 16.6538C31.1432 16.6538 30.4828 16.75 29.7205 17.5359C29.5605 17.6968 29.6214 17.9608 29.8196 18.0491H29.8254C29.8264 18.05 29.8657 18.0638 29.8824 18.0726C30.06 18.1698 29.9893 18.4464 29.7813 18.4464C29.7479 18.4484 23.744 18.5249 23.7136 18.5249C20.8181 18.5338 20.6876 19.5385 21.2331 20.4491C21.3617 20.6561 22.1535 21.7442 22.2948 21.9385C22.3576 22.0258 22.4861 22.015 22.5371 21.9209C22.7677 21.4931 23.5595 21.5078 24.6133 21.5235C24.9607 21.5284 25.3355 21.5333 25.729 21.5225C26.0537 21.5225 26.4374 21.7854 26.5855 22.068C26.5855 22.07 26.5855 22.07 26.5895 22.0739C26.7739 22.4448 26.6572 22.643 26.5718 22.8549C26.5689 22.8549 26.5689 22.8589 26.5659 22.8608C25.4238 24.889 23.3594 28.5449 21.8297 31.25C21.8071 31.2962 21.8071 31.3511 21.8336 31.3953C21.8591 31.4414 21.9053 31.4679 21.9573 31.4679H28.5931C28.703 31.4679 28.5214 31.2383 30.8341 34.7784C30.8626 34.7784 30.9774 34.9933 32.9996 38.088L33.0006 38.087Z" fill="url(#paint3_linear_18_2719)"/>
<path d="M62.6913 44.8494V51.3125C62.6854 51.7795 62.6736 52.2407 62.6511 52.6999C62.5843 53.8597 62.4695 54.9184 62.2968 55.9624C62.2851 56.0281 62.2242 56.0801 62.1555 56.0801H53.0687C53.0481 56.0801 53.0255 56.0742 53.0089 56.0664C52.9941 56.0605 52.9794 56.0516 52.9686 56.0409C52.9539 56.0291 52.9421 56.0124 52.9372 55.9947C52.9284 55.9771 52.9255 55.9594 52.9255 55.9398V52.9157C52.9255 52.9128 52.9225 52.9099 52.9225 52.9069V52.8991C52.9225 52.8961 52.9196 52.8922 52.9196 52.8902V52.8844C52.9166 52.8814 52.9166 52.8775 52.9166 52.8775C52.9166 52.8755 52.9137 52.8726 52.9137 52.8726V52.8696L52.9107 52.8677C52.9107 52.8647 52.9107 52.8618 52.9078 52.8618C52.9078 52.8588 52.9078 52.8559 52.9049 52.8559C52.9049 52.8539 52.9049 52.8539 52.9019 52.85C52.9019 52.8471 52.9019 52.8471 52.899 52.8441L52.896 52.8412C52.896 52.8382 52.8931 52.8353 52.8931 52.8353C52.8901 52.8323 52.8901 52.8323 52.8872 52.8294L52.8843 52.8265L52.8784 52.8206C52.8754 52.8176 52.8754 52.8176 52.8725 52.8137C52.8695 52.8137 52.8666 52.8108 52.8666 52.8078C52.8636 52.8078 52.8607 52.8049 52.8578 52.8049C52.8548 52.8019 52.8489 52.799 52.846 52.796H52.8401C52.8224 52.7872 52.8028 52.7813 52.7793 52.7813H44.2027C44.1389 52.7813 44.082 52.8216 44.0643 52.8883C44.0614 52.9001 44.0584 52.9138 44.0584 52.9256V53.4858C44.0584 53.5349 44.0849 53.581 44.1271 53.6065L44.8797 54.0392L46.01 54.6917L52.8479 58.6233L54.0273 59.3014L60.2442 62.8817C59.0098 65.738 57.3438 68.346 55.3245 70.6361C54.9085 71.112 54.4738 71.5761 54.0264 72.0235C49.0723 76.9422 42.5052 80.1066 35.1982 80.6403C35.1727 80.6403 35.1492 80.6345 35.1296 80.6266C35.1148 80.6178 35.1011 80.6119 35.0923 80.604C35.0776 80.5893 35.0658 80.5756 35.0579 80.555C35.0491 80.5373 35.0432 80.5177 35.0432 80.4971V67.4521C35.0432 67.3736 35.109 67.3108 35.1904 67.3108H43.5649C43.6463 67.3108 43.7091 67.3746 43.7091 67.4521V69.5058C43.7091 69.5489 43.7346 69.5921 43.7729 69.6157C43.9799 69.5637 44.0614 69.5146 44.1389 69.4655C44.2429 69.4047 44.3469 69.336 44.447 69.2722C44.4754 69.2526 44.5078 69.2291 44.5363 69.2114C44.6462 69.1457 44.7502 69.0731 44.8542 69.0005C44.9955 68.9092 45.125 68.816 45.2574 68.7208C45.4134 68.606 45.5665 68.4961 45.7186 68.3784C45.7529 68.3519 45.7824 68.3293 45.8108 68.3058C45.9374 68.2135 46.062 68.1125 46.1827 68.0173C46.4045 67.8358 46.5546 67.7082 46.7047 67.5816C46.8548 67.4551 47.002 67.3246 47.1492 67.1892C47.2591 67.0911 47.368 66.99 47.4749 66.886C47.5004 66.8575 47.5181 66.8232 47.5181 66.783V66.209V66.206C47.5181 66.2031 47.5181 66.2031 47.5152 66.2001V66.1913C47.5152 66.1893 47.5122 66.1893 47.5122 66.1854V66.1805C47.5093 66.1766 47.5093 66.1746 47.5093 66.1746C47.5093 66.1717 47.5063 66.1687 47.5063 66.1687C47.5063 66.1658 47.5034 66.1658 47.5034 66.1628C47.5034 66.1628 47.5034 66.1599 47.5004 66.157C47.5004 66.157 47.5004 66.154 47.4975 66.154C47.4975 66.1511 47.4975 66.1511 47.4946 66.1481C47.4946 66.1452 47.4916 66.1452 47.4916 66.1452C47.4916 66.1422 47.4887 66.1393 47.4887 66.1393L47.4828 66.1334L47.4798 66.1305C47.4769 66.1275 47.4769 66.1246 47.474 66.1246C47.471 66.1216 47.471 66.1216 47.4681 66.1187C47.4651 66.1157 47.4622 66.1157 47.4592 66.1128C47.4563 66.1099 47.4534 66.1099 47.4504 66.1069C47.4475 66.104 47.4445 66.104 47.4445 66.102L35.1168 59.005C35.0933 58.9933 35.0766 58.9756 35.0648 58.956C35.0511 58.9334 35.0422 58.9099 35.0422 58.8843V47.0855L36.5366 44.7718C36.565 44.7316 36.6082 44.7081 36.6573 44.7081H62.5451C62.6255 44.7081 62.6893 44.7718 62.6893 44.8484L62.6913 44.8494Z" fill="#DB162F"/>
<path d="M55.3264 70.6361C54.9114 71.112 54.4757 71.5761 54.0283 72.0235C49.0743 76.9412 42.5081 80.1056 35.2002 80.6403C35.1747 80.6403 35.1511 80.6344 35.1315 80.6256C35.1168 80.6168 35.1031 80.6109 35.0942 80.603C35.0805 80.5883 35.0687 80.5746 35.0599 80.554C35.0511 80.5363 35.0452 80.5157 35.0452 80.4961V81.754C35.0452 81.7569 35.0481 81.7599 35.0481 81.7628V81.7795C35.0511 81.7824 35.0511 81.7854 35.0511 81.7854C35.0511 81.7883 35.0511 81.7913 35.054 81.7942V81.8001C35.0569 81.803 35.0569 81.806 35.0569 81.806C35.0569 81.8079 35.0599 81.8079 35.0599 81.8109C35.0599 81.8138 35.0628 81.8168 35.0628 81.8168C35.0628 81.8197 35.0658 81.8227 35.0658 81.8227C35.0658 81.8256 35.0687 81.8256 35.0687 81.8295C35.0687 81.8315 35.0717 81.8315 35.0717 81.8344C35.0746 81.8344 35.0746 81.8374 35.0746 81.8403C35.0775 81.8403 35.0775 81.8433 35.0805 81.8433C35.0805 81.8452 35.0834 81.8452 35.0834 81.8492C35.0864 81.8521 35.0864 81.8521 35.0893 81.855C35.0893 81.855 35.0923 81.858 35.0952 81.858C35.0952 81.8609 35.0981 81.8639 35.1011 81.8639C35.1011 81.8668 35.104 81.8668 35.107 81.8698C35.1099 81.8698 35.1129 81.8727 35.1158 81.8756C35.1188 81.8786 35.1207 81.8786 35.1266 81.8815H35.1325C35.1531 81.8933 35.1757 81.8992 35.2012 81.8992C42.5091 81.3615 49.0753 78.2011 54.0293 73.2824C54.4767 72.832 54.9114 72.3708 55.3274 71.8949C57.4527 69.4802 59.1864 66.7231 60.4375 63.6902V62.9926L60.2471 62.8827C59.0128 65.7389 57.3457 68.347 55.3274 70.6371L55.3264 70.6361Z" fill="#50000B"/>
<path d="M44.8818 54.0402H52.7804C52.804 54.0402 52.8236 54.0461 52.8413 54.0549C52.8589 54.0608 52.8697 54.0696 52.8815 54.0814C52.8962 54.0961 52.905 54.1098 52.9139 54.1275C52.9198 54.1452 52.9256 54.1619 52.9256 54.1825V52.9157C52.9256 52.9128 52.9227 52.9099 52.9227 52.9069V52.8991C52.9227 52.8961 52.9198 52.8922 52.9198 52.8902V52.8843C52.9168 52.8814 52.9168 52.8784 52.9168 52.8784C52.9168 52.8755 52.9139 52.8726 52.9139 52.8726V52.8696L52.9109 52.8677C52.9109 52.8647 52.9109 52.8618 52.908 52.8618C52.908 52.8588 52.908 52.8559 52.905 52.8559C52.905 52.8529 52.905 52.8529 52.9021 52.85C52.9021 52.8471 52.9021 52.8471 52.8991 52.8441L52.8962 52.8412C52.8962 52.8382 52.8933 52.8353 52.8933 52.8353C52.8903 52.8323 52.8903 52.8323 52.8874 52.8294L52.8844 52.8264L52.8785 52.8206C52.8756 52.8176 52.8756 52.8176 52.8727 52.8137C52.8697 52.8137 52.8668 52.8117 52.8668 52.8078C52.8638 52.8078 52.8609 52.8049 52.8579 52.8049C52.855 52.8019 52.8491 52.799 52.8462 52.796H52.8403C52.8226 52.7872 52.803 52.7813 52.7794 52.7813H44.2028C44.1391 52.7813 44.0821 52.8215 44.0645 52.8883C44.0615 52.9 44.0586 52.9138 44.0586 52.9255V53.4858C44.0586 53.5349 44.0851 53.581 44.1273 53.6065L44.8799 54.0392L44.8818 54.0402Z" fill="#50000B"/>
<path d="M62.6511 52.6989C62.5844 53.8587 62.4696 54.9174 62.2969 55.9614C62.2851 56.0271 62.2243 56.0801 62.1556 56.0801H53.0688C53.0482 56.0801 53.0256 56.0742 53.0089 56.0654C52.9942 56.0595 52.9795 56.0507 52.9687 56.0399C52.954 56.0281 52.9422 56.0114 52.9373 55.9938C52.9285 55.9761 52.9255 55.9594 52.9255 55.9388V57.2134C52.9255 57.2163 52.9255 57.2193 52.9285 57.2222V57.2281C52.9285 57.2311 52.9285 57.234 52.9314 57.234V57.2419C52.9344 57.2419 52.9344 57.2448 52.9344 57.2477L52.9373 57.2497V57.2526C52.9373 57.2526 52.9403 57.2556 52.9403 57.2585L52.9432 57.2615C52.9432 57.2644 52.9461 57.2674 52.9461 57.2674C52.9461 57.2703 52.9491 57.2703 52.9491 57.2733C52.952 57.2762 52.952 57.2762 52.952 57.2791C52.955 57.2791 52.955 57.2811 52.9579 57.2811C52.9579 57.284 52.9609 57.287 52.9609 57.287C52.9638 57.2899 52.9638 57.2899 52.9667 57.2929L52.9697 57.2958L52.9726 57.2988C52.9726 57.2988 52.9756 57.3017 52.9785 57.3017C52.9815 57.3037 52.9815 57.3076 52.9844 57.3076C52.9873 57.3105 52.9903 57.3135 52.9932 57.3135C52.9991 57.3164 53.0021 57.3194 53.005 57.3223H53.0109C53.0276 57.3311 53.0511 57.337 53.0708 57.337H62.1576C62.2272 57.337 62.2871 57.285 62.2989 57.2183C62.4716 56.1743 62.5873 55.1156 62.6531 53.9529C62.6766 53.4966 62.6874 53.0355 62.6933 52.5684V51.3115C62.6874 51.7786 62.6757 52.2397 62.6531 52.6989H62.6511Z" fill="#50000B"/>
<path d="M35.0481 60.1589V60.1648C35.0481 60.1677 35.0511 60.1707 35.0511 60.1707V60.1795C35.054 60.1795 35.054 60.1825 35.054 60.1854C35.054 60.1854 35.054 60.1883 35.0569 60.1913C35.0569 60.1913 35.0569 60.1942 35.0599 60.1972V60.2001C35.0628 60.2031 35.0628 60.206 35.0628 60.206C35.0658 60.2089 35.0658 60.2119 35.0687 60.2119C35.0687 60.2148 35.0687 60.2148 35.0717 60.2178C35.0717 60.2207 35.0746 60.2207 35.0746 60.2237C35.0775 60.2266 35.0775 60.2266 35.0805 60.2296C35.0805 60.2296 35.0834 60.2315 35.0834 60.2354C35.0864 60.2354 35.0864 60.2384 35.0893 60.2413C35.0923 60.2413 35.0923 60.2443 35.0952 60.2472C35.0981 60.2472 35.1011 60.2502 35.104 60.2531C35.104 60.2531 35.107 60.2551 35.1099 60.259C35.1129 60.2619 35.1188 60.2619 35.1217 60.2649L47.1531 67.1911C47.263 67.093 47.3719 66.9919 47.4788 66.8879C47.5044 66.8585 47.522 66.8242 47.522 66.7849V66.2109V66.208C47.522 66.205 47.522 66.205 47.5191 66.2021V66.1932C47.5191 66.1903 47.5161 66.1903 47.5161 66.1874V66.1815C47.5132 66.1785 47.5132 66.1756 47.5132 66.1756C47.5132 66.1726 47.5102 66.1697 47.5102 66.1697C47.5102 66.1667 47.5073 66.1667 47.5073 66.1638C47.5073 66.1638 47.5073 66.1609 47.5044 66.1579C47.5044 66.1579 47.5044 66.155 47.5014 66.155C47.5014 66.152 47.5014 66.152 47.4985 66.1491C47.4985 66.1461 47.4955 66.1461 47.4955 66.1461C47.4955 66.1432 47.4926 66.1403 47.4926 66.1403L47.4867 66.1344L47.4837 66.1314C47.4808 66.1285 47.4808 66.1255 47.4779 66.1255C47.4749 66.1226 47.4749 66.1226 47.472 66.1197C47.469 66.1177 47.4661 66.1177 47.4631 66.1138C47.4602 66.1108 47.4573 66.1108 47.4543 66.1079C47.4514 66.1059 47.4484 66.1059 47.4484 66.103L35.1207 59.006C35.0981 58.9942 35.0805 58.9766 35.0687 58.9569C35.054 58.9344 35.0461 58.9108 35.0461 58.8853V60.1432C35.0461 60.1452 35.0491 60.1481 35.0491 60.152V60.1599L35.0481 60.1589Z" fill="#50000B"/>
<path d="M21.1889 54.054C21.2065 54.0598 21.2173 54.0687 21.2291 54.0804H21.232C21.2438 54.0952 21.2546 54.1089 21.2605 54.1266C21.2693 54.1442 21.2723 54.1609 21.2723 54.1815V52.906C21.2723 52.904 21.2723 52.9001 21.2693 52.8981V52.8922C21.2693 52.8893 21.2664 52.8863 21.2664 52.8844C21.2664 52.8844 21.2664 52.8814 21.2634 52.8785V52.8726L21.2605 52.8697V52.8667C21.2605 52.8638 21.2576 52.8638 21.2576 52.8608C21.2576 52.8608 21.2546 52.8579 21.2546 52.8549L21.2517 52.852C21.2517 52.8491 21.2487 52.8461 21.2487 52.8461C21.2458 52.8432 21.2458 52.8432 21.2458 52.8402C21.2428 52.8402 21.2428 52.8383 21.2399 52.8343L21.2369 52.8314C21.234 52.8284 21.234 52.8284 21.2311 52.8255V52.8226H21.2281L21.2252 52.8196C21.2252 52.8196 21.2222 52.8167 21.2193 52.8167C21.2193 52.8147 21.2163 52.8118 21.2134 52.8118C21.2105 52.8088 21.2075 52.8059 21.2046 52.8059C21.2016 52.8029 21.1957 52.8 21.1928 52.8C21.1928 52.797 21.1898 52.7971 21.1869 52.7971C21.1692 52.7882 21.1496 52.7833 21.1261 52.7833H3.43712C3.41652 52.7833 3.39395 52.7745 3.37923 52.7598C3.36157 52.745 3.35372 52.7244 3.35078 52.7048C3.32821 52.2427 3.31349 51.7786 3.31055 51.3115V52.5684C3.31349 53.0365 3.32821 53.5006 3.35078 53.9617V53.9686V53.9715C3.35078 53.9715 3.35078 53.9745 3.35372 53.9745V53.9804V53.9833C3.35666 53.9833 3.35666 53.9853 3.35666 53.9853C3.35666 53.9882 3.35666 53.9882 3.35961 53.9882V53.9941C3.35961 53.9941 3.36255 53.9941 3.36255 53.997L3.36549 54V54.0029C3.36844 54.0029 3.36844 54.0059 3.36844 54.0059L3.37138 54.0088L3.37432 54.0118C3.37727 54.0147 3.37727 54.0147 3.38021 54.0177L3.38315 54.0206C3.3861 54.0206 3.3861 54.0235 3.38904 54.0235C3.38904 54.0235 3.39199 54.0265 3.39493 54.0265C3.39493 54.0284 3.39787 54.0284 3.40082 54.0324C3.41259 54.0383 3.42633 54.0412 3.4381 54.0412H21.1271C21.1506 54.0412 21.1702 54.0471 21.1879 54.0559L21.1889 54.054Z" fill="#50000B"/>
<path d="M30.8115 80.6404C18.631 79.7445 7.70342 71.3308 4.29476 58.7107H4.15052C4.23392 59.3171 3.93073 58.7352 4.47333 60.6064C4.48903 60.6544 4.79713 61.8083 5.41332 63.3498C5.41626 63.3527 5.41626 63.3557 5.41626 63.3586C5.54185 63.548 8.43245 72.0559 17.3142 77.5172C20.2823 79.4983 25.3924 81.5009 30.8105 81.8992C31.098 81.8992 30.891 81.3527 30.9577 80.5001C30.9577 80.5805 30.892 80.6413 30.8105 80.6413L30.8115 80.6404Z" fill="#50000B"/>
<path d="M30.9586 80.4991C30.9586 80.5393 30.941 80.5775 30.9125 80.6031C30.887 80.6256 30.8487 80.6403 30.8114 80.6403C27.4401 80.3921 24.2276 79.5905 21.2723 78.3208C20.8857 78.156 20.5079 77.9774 20.1302 77.7988C20.0409 77.7556 19.9516 77.7125 19.8623 77.6683C19.6121 77.5447 19.3668 77.4142 19.1215 77.2847C18.9459 77.1924 18.7702 77.1022 18.5995 77.008C18.366 76.8785 18.1374 76.743 17.9097 76.6096C17.7478 76.5144 17.584 76.4193 17.426 76.3211C17.0738 76.1082 16.7274 75.8855 16.3869 75.6549C16.3212 75.6117 16.2574 75.5656 16.1907 75.5195C15.8993 75.3203 15.6108 75.1152 15.3253 74.9053C15.2507 74.8503 15.1751 74.7934 15.0976 74.7355C14.7719 74.4902 14.4491 74.239 14.1341 73.98C14.0998 73.9515 14.0674 73.9251 14.036 73.8966C13.7279 73.6425 13.4217 73.3795 13.1244 73.1116C13.0901 73.0803 13.0558 73.0479 13.0204 73.0165C12.6859 72.7162 12.3601 72.4052 12.0402 72.0873C11.74 71.79 11.4545 71.4907 11.1748 71.1846C11.1287 71.1355 11.0826 71.0865 11.0365 71.0374C10.8805 70.8637 10.7303 70.6881 10.5783 70.5154C10.4193 70.3309 10.2584 70.1494 10.1024 69.962C9.96402 69.7952 9.82862 69.6255 9.69616 69.4547C9.55781 69.2811 9.41946 69.1074 9.287 68.9318C9.05936 68.6286 8.83467 68.3264 8.61783 68.0173C8.45593 67.7857 8.30384 67.5502 8.15078 67.3138C8.03794 67.144 7.92314 66.9733 7.81619 66.8006C7.69256 66.6044 7.57384 66.4052 7.45609 66.206C7.35503 66.0333 7.25102 65.8626 7.1529 65.6899C7.03418 65.4878 6.92723 65.2807 6.81537 65.0727C6.7202 64.8991 6.62502 64.7234 6.53573 64.5478C6.35127 64.1867 6.17269 63.8227 6.00196 63.4538C5.95585 63.3615 5.91562 63.2634 5.87245 63.1712C5.71938 62.8248 5.56926 62.4785 5.42797 62.1272C5.42502 62.1154 5.41914 62.1036 5.41325 62.0919C5.26313 61.7161 5.12183 61.3363 4.98643 60.9517C4.95503 60.8595 4.91971 60.7643 4.88537 60.6721C4.75291 60.2718 4.62339 59.8646 4.50466 59.4574C4.49289 59.4201 4.48504 59.3848 4.47327 59.3475C4.41243 59.1365 4.35258 58.9236 4.29469 58.7107L13.0764 58.6754C13.1362 58.6754 13.1912 58.7126 13.2118 58.7735C13.8868 60.6632 14.8268 62.4196 15.9944 64.013C17.3907 65.9195 19.095 67.5846 21.0476 68.9288C21.2409 68.9141 21.2723 68.865 21.2723 68.8101V52.9069C21.2723 52.904 21.2723 52.901 21.2693 52.8981V52.8922C21.2693 52.8893 21.2664 52.8863 21.2664 52.8843C21.2664 52.8843 21.2664 52.8814 21.2634 52.8785V52.8726L21.2605 52.8696V52.8667C21.2605 52.8637 21.2576 52.8637 21.2576 52.8608C21.2576 52.8608 21.2546 52.8579 21.2546 52.8549L21.2517 52.8529C21.2517 52.85 21.2487 52.8471 21.2487 52.8471C21.2458 52.8441 21.2458 52.8441 21.2458 52.8412C21.2428 52.8412 21.2428 52.8382 21.2399 52.8353L21.237 52.8323C21.234 52.8294 21.234 52.8294 21.2311 52.8265V52.8235H21.2281L21.2252 52.8206C21.2252 52.8206 21.2222 52.8176 21.2193 52.8176C21.2193 52.8147 21.2163 52.8117 21.2134 52.8117C21.2105 52.8088 21.2075 52.8059 21.2046 52.8059C21.2016 52.8029 21.1957 52.8 21.1928 52.8C21.1928 52.798 21.1899 52.798 21.1869 52.798C21.1693 52.7892 21.1496 52.7833 21.1261 52.7833H3.43614C3.41554 52.7833 3.39297 52.7745 3.37825 52.7607C3.36059 52.746 3.35176 52.7254 3.3498 52.7058C3.32625 52.2436 3.31251 51.7795 3.30957 51.3125V44.8503C3.30957 44.7728 3.37531 44.709 3.45381 44.709H29.3446C29.3936 44.709 29.4368 44.7326 29.4623 44.7728L30.9331 47.005L30.9567 80.5L30.9586 80.4991Z" fill="#DB162F"/>
<path d="M2.90142 0.169763C2.90142 0.138365 2.92693 0.112854 2.95833 0.112854H4.17501C4.20641 0.112854 4.23192 0.138365 4.23192 0.169763V4.30157C4.23192 4.84907 4.18384 5.27001 4.08768 5.56534C3.95816 5.95095 3.72366 6.26003 3.38318 6.49257C3.04271 6.7261 2.59529 6.84286 2.03895 6.84286C1.38646 6.84286 0.884086 6.66036 0.531838 6.29437C0.18842 5.93722 0.0118051 5.41817 3.08148e-05 4.73722C-0.000950378 4.70778 0.0216171 4.68325 0.0510529 4.67933L1.19807 4.54785C1.21377 4.54589 1.23045 4.55079 1.24124 4.56158C1.254 4.5714 1.26086 4.58611 1.26185 4.60279C1.28049 4.95014 1.33445 5.1974 1.4257 5.34556C1.56994 5.58301 1.78973 5.70173 2.08507 5.70173C2.38237 5.70173 2.59332 5.61637 2.71696 5.44662C2.84059 5.27589 2.9024 4.92364 2.9024 4.38791V0.170744L2.90142 0.169763Z" fill="#DB162F"/>
<path d="M9.03687 4.11219C9.05551 4.11219 9.07317 4.10336 9.08397 4.08766C9.09476 4.07196 9.09672 4.05234 9.09083 4.03468L8.26173 1.80246C8.25289 1.7799 8.23229 1.76518 8.20776 1.76518C8.18421 1.76518 8.16263 1.78088 8.15379 1.80246L7.34235 4.03468C7.33646 4.05234 7.33842 4.07196 7.34922 4.08766C7.36001 4.10336 7.37767 4.11219 7.39631 4.11219H9.03687ZM11.5468 6.65152C11.5536 6.66918 11.5517 6.68881 11.5409 6.70549C11.5301 6.72119 11.5124 6.731 11.4938 6.731H10.1652C10.1417 6.731 10.1201 6.71628 10.1123 6.69371L9.56279 5.26411C9.55396 5.24253 9.53335 5.22781 9.50882 5.22781H6.94398C6.91945 5.22781 6.89885 5.24253 6.89002 5.2651L6.37097 6.69273C6.36312 6.7153 6.34153 6.731 6.317 6.731H5.02379C5.00515 6.731 4.98748 6.72119 4.97669 6.70549C4.9659 6.69077 4.96394 6.67016 4.9708 6.6525L7.50228 0.150135C7.51111 0.128548 7.5327 0.113831 7.55625 0.113831H8.89067C8.91422 0.113831 8.93482 0.127567 8.94366 0.149154L11.5468 6.65152Z" fill="#DB162F"/>
<path d="M13.876 6.73002C13.8515 6.73002 13.8299 6.71432 13.822 6.69175L11.4986 0.189387C11.4917 0.171726 11.4946 0.152102 11.5054 0.137384C11.5162 0.122666 11.5339 0.112854 11.5525 0.112854H12.8791C12.9036 0.112854 12.9252 0.128553 12.9331 0.151121L14.5383 4.84907C14.5462 4.87262 14.5687 4.88832 14.5933 4.88832C14.6178 4.88832 14.6394 4.87262 14.6472 4.84907L16.2004 0.153083C16.2083 0.129534 16.2299 0.113835 16.2554 0.113835H17.5496C17.5682 0.113835 17.5859 0.122666 17.5967 0.138365C17.6075 0.154064 17.6104 0.173688 17.6036 0.190368L15.2762 6.69274C15.2683 6.7153 15.2467 6.731 15.2222 6.731H13.877L13.876 6.73002Z" fill="#DB162F"/>
<path d="M21.6079 4.11219C21.6266 4.11219 21.6442 4.10336 21.655 4.08766C21.6658 4.07196 21.6688 4.05234 21.6619 4.03468L20.8328 1.80246C20.8239 1.7799 20.8033 1.76518 20.7788 1.76518C20.7553 1.76518 20.7337 1.78088 20.7248 1.80246L19.9134 4.03468C19.9065 4.05234 19.9095 4.07196 19.9203 4.08766C19.9311 4.10336 19.9487 4.11219 19.9674 4.11219H21.6079ZM24.1178 6.65152C24.1247 6.66918 24.1227 6.68881 24.1119 6.70549C24.1011 6.72119 24.0835 6.731 24.0648 6.731H22.7363C22.7127 6.731 22.6912 6.71628 22.6823 6.69371L22.1329 5.26411C22.124 5.24253 22.1034 5.22781 22.0789 5.22781H19.5141C19.4895 5.22781 19.4679 5.24253 19.4601 5.2651L18.941 6.69273C18.9332 6.7153 18.9116 6.731 18.8871 6.731H17.5939C17.5752 6.731 17.5576 6.72119 17.5468 6.70549C17.536 6.69077 17.534 6.67016 17.5409 6.6525L20.0724 0.150135C20.0812 0.128548 20.1018 0.113831 20.1263 0.113831H21.4607C21.4843 0.113831 21.5049 0.127567 21.5137 0.149154L24.1168 6.65152H24.1178Z" fill="#DB162F"/>
<path d="M27.4519 4.63613C27.4499 4.62043 27.4539 4.60572 27.4637 4.59296C27.4735 4.58119 27.4882 4.57334 27.5029 4.57137L28.6921 4.45559C28.7216 4.45265 28.7481 4.47227 28.7539 4.50073C28.8354 4.91185 28.9904 5.21406 29.22 5.41128C29.4594 5.61635 29.7813 5.71839 30.1875 5.71839C30.6172 5.71839 30.942 5.62714 31.1598 5.44562C31.3777 5.2641 31.4866 5.0502 31.4866 4.80686C31.4866 4.64987 31.4414 4.51741 31.3492 4.40752C31.258 4.29762 31.097 4.20147 30.8684 4.12101C30.7124 4.06704 30.3553 3.97088 29.7989 3.83254C29.0827 3.65494 28.5803 3.43712 28.2918 3.17808C27.8856 2.81406 27.6825 2.36958 27.6825 1.8466C27.6825 1.50907 27.7777 1.19411 27.969 0.900731C28.1603 0.607354 28.4351 0.383642 28.7952 0.230576C29.1543 0.0775096 29.5889 0.000976562 30.0972 0.000976562C30.9273 0.000976562 31.5523 0.183478 31.9723 0.547501C32.3785 0.89975 32.5973 1.36582 32.6306 1.94766C32.6316 1.96238 32.6267 1.97808 32.6159 1.98986C32.6061 2.00163 32.5914 2.0085 32.5757 2.0085L31.3472 2.06246C31.3188 2.06443 31.2933 2.04382 31.2884 2.01635C31.2275 1.70237 31.1088 1.47375 30.9293 1.33147C30.7409 1.18233 30.4593 1.10776 30.0835 1.10776C29.6949 1.10776 29.3917 1.18724 29.1719 1.34717C29.0306 1.44922 28.96 1.58658 28.96 1.75829C28.96 1.91528 29.0257 2.04775 29.1582 2.1596C29.327 2.30089 29.7361 2.44905 30.3857 2.60212C31.0352 2.75519 31.516 2.91414 31.828 3.078C32.1391 3.24284 32.3834 3.46655 32.559 3.7511C32.7356 4.03466 32.823 4.38691 32.823 4.8049C32.823 5.18364 32.718 5.53981 32.507 5.87047C32.297 6.20212 31.9988 6.4484 31.6141 6.60931C31.2285 6.77023 30.7487 6.85069 30.1747 6.85069C29.3387 6.85069 28.6961 6.65739 28.2477 6.2708C27.811 5.89402 27.5461 5.35044 27.4519 4.63908V4.63613Z" fill="#DB162F"/>
<path d="M35.7214 1.23239C35.69 1.23239 35.6635 1.25888 35.6635 1.29028V3.05349C35.6635 3.08488 35.689 3.11039 35.7214 3.11039H36.3955C36.9214 3.11039 37.2737 3.07605 37.4513 3.00737C37.6289 2.93869 37.7672 2.82977 37.8683 2.68161C37.9693 2.53443 38.0194 2.36273 38.0194 2.16747C38.0194 1.92609 37.9487 1.72789 37.8074 1.57188C37.6661 1.41587 37.4866 1.31775 37.2707 1.27851C37.1118 1.24907 36.7909 1.23337 36.3092 1.23337H35.7214V1.23239ZM34.385 6.731C34.3536 6.731 34.3281 6.70549 34.3281 6.67311V0.17074C34.3281 0.13836 34.3536 0.113831 34.385 0.113831H36.4711C37.2835 0.113831 37.8123 0.147191 38.0596 0.212931C38.4383 0.312032 38.7563 0.527894 39.0123 0.860519C39.2684 1.19314 39.396 1.62291 39.396 2.14981C39.396 2.55602 39.3224 2.89748 39.1752 3.17417C39.028 3.45087 38.8406 3.66869 38.613 3.82667C38.3863 3.98464 38.1548 4.08864 37.9203 4.14065C37.6014 4.20344 37.1392 4.23484 36.5348 4.23484H35.7214C35.69 4.23484 35.6635 4.26133 35.6635 4.29273V6.67409C35.6635 6.70549 35.638 6.73198 35.6056 6.73198H34.3841L34.385 6.731Z" fill="#DB162F"/>
<path d="M41.7606 3.4175C41.7606 4.16615 41.9333 4.73524 42.2797 5.12183C42.6251 5.50842 43.0647 5.70171 43.5974 5.70171C44.1302 5.70171 44.5669 5.51038 44.9083 5.12673C45.2498 4.74309 45.4205 4.16713 45.4205 3.39983C45.4205 2.64235 45.2547 2.07621 44.9221 1.70237C44.5894 1.32952 44.1479 1.14211 43.5974 1.14211C43.047 1.14211 42.6025 1.33148 42.266 1.70924C41.9284 2.087 41.7606 2.65609 41.7606 3.4175ZM40.384 3.46263C40.384 2.78855 40.4841 2.2224 40.6862 1.76517C40.8373 1.42862 41.0424 1.12543 41.3024 0.857563C41.5625 0.589697 41.848 0.390515 42.158 0.261979C42.5701 0.0873262 43.045 0 43.5837 0C44.558 0 45.3381 0.302208 45.9229 0.907604C46.5077 1.51202 46.801 2.3529 46.801 3.43025C46.801 4.49877 46.5106 5.33475 45.9297 5.93818C45.3499 6.54162 44.5728 6.84284 43.6014 6.84284C42.6172 6.84284 41.8352 6.5426 41.2544 5.94211C40.6735 5.34162 40.3831 4.51447 40.3831 3.46165L40.384 3.46263Z" fill="#DB162F"/>
<path d="M49.6179 2.8543C49.6179 2.88668 49.6434 2.91219 49.6748 2.91219H50.6059C51.2467 2.91219 51.647 2.88472 51.8059 2.83075C51.9659 2.77679 52.0905 2.68358 52.1808 2.55111C52.271 2.41865 52.3162 2.25283 52.3162 2.05463C52.3162 1.8319 52.2563 1.65234 52.1376 1.51497C52.0189 1.37859 51.8511 1.29126 51.6342 1.25594C51.5253 1.24122 51.2015 1.23337 50.6589 1.23337H49.6738C49.6424 1.23337 49.6169 1.25888 49.6169 1.29028V2.85528L49.6179 2.8543ZM48.3394 6.731C48.308 6.731 48.2815 6.70549 48.2815 6.67311V0.17074C48.2815 0.139342 48.307 0.113831 48.3394 0.113831H51.0926C51.8 0.113831 52.3132 0.172702 52.6341 0.291427C52.9549 0.410151 53.211 0.622089 53.4043 0.925277C53.5966 1.22945 53.6928 1.57679 53.6928 1.96829C53.6928 2.46477 53.5466 2.87491 53.2552 3.1987C52.9893 3.49306 52.6037 3.6893 52.0974 3.78447C52.0738 3.78938 52.0561 3.80704 52.0512 3.83059C52.0463 3.85316 52.0571 3.87671 52.0767 3.88946C52.3073 4.03664 52.5026 4.19461 52.6615 4.36534C52.849 4.56747 53.1031 4.9256 53.422 5.43975L54.1745 6.64269C54.1853 6.66035 54.1863 6.68292 54.1765 6.70058C54.1667 6.71922 54.1471 6.73002 54.1265 6.73002H52.6635C52.6439 6.73002 52.6262 6.7202 52.6164 6.70451L51.6676 5.28963C51.3252 4.77548 51.0897 4.4507 50.9641 4.31726C50.8375 4.18284 50.7041 4.09061 50.5628 4.04155C50.4215 3.99151 50.1968 3.96698 49.8907 3.96698H49.6768C49.6454 3.96698 49.6198 3.99249 49.6198 4.02487V6.67213C49.6198 6.70352 49.5933 6.73002 49.562 6.73002H48.3413L48.3394 6.731Z" fill="#DB162F"/>
<path d="M56.6699 6.73002C56.6376 6.73002 56.612 6.70451 56.612 6.67213V1.28832C56.612 1.25693 56.5865 1.23141 56.5542 1.23141H54.7056C54.6742 1.23141 54.6487 1.2059 54.6487 1.17451V0.169763C54.6487 0.137384 54.6742 0.112854 54.7056 0.112854H59.848C59.8794 0.112854 59.9049 0.138365 59.9049 0.169763V1.17451C59.9049 1.20688 59.8794 1.23141 59.848 1.23141H58.0044C57.972 1.23141 57.9465 1.25693 57.9465 1.28832V6.67213C57.9465 6.70353 57.921 6.73002 57.8896 6.73002H56.669H56.6699Z" fill="#DB162F"/>
<path d="M60.6279 4.63613C60.626 4.62043 60.6299 4.60572 60.6397 4.59296C60.6495 4.58119 60.6642 4.57334 60.679 4.57137L61.8672 4.45559C61.8966 4.45265 61.9231 4.47227 61.929 4.50073C62.0095 4.91185 62.1655 5.21406 62.3951 5.41128C62.6345 5.61635 62.9573 5.71839 63.3635 5.71839C63.7933 5.71839 64.118 5.62714 64.3359 5.44562C64.5547 5.2641 64.6626 5.0502 64.6626 4.80686C64.6626 4.64987 64.6165 4.51741 64.5252 4.40752C64.433 4.29762 64.2731 4.20147 64.0445 4.12101C63.8884 4.06704 63.5313 3.97088 62.975 3.83254C62.2587 3.65494 61.7563 3.43712 61.4678 3.17808C61.0616 2.81406 60.8585 2.36958 60.8585 1.8466C60.8585 1.50907 60.9537 1.19411 61.145 0.900731C61.3364 0.607354 61.6121 0.383642 61.9712 0.230576C62.3313 0.0775096 62.765 0.000976562 63.2732 0.000976562C64.1033 0.000976562 64.7283 0.183478 65.1483 0.547501C65.5545 0.89975 65.7743 1.36582 65.8067 1.94766C65.8077 1.96238 65.8018 1.97808 65.792 1.98986C65.7821 2.00163 65.7674 2.0085 65.7517 2.0085L64.5233 2.06246C64.4948 2.06443 64.4693 2.04382 64.4644 2.01635C64.4036 1.70237 64.2839 1.47375 64.1053 1.33147C63.9169 1.18233 63.6353 1.10776 63.2595 1.10776C62.8709 1.10776 62.5678 1.18724 62.348 1.34717C62.2067 1.44922 62.136 1.58658 62.136 1.75829C62.136 1.91528 62.2018 2.04775 62.3342 2.1596C62.503 2.30089 62.9122 2.44905 63.5617 2.60212C64.2113 2.75519 64.692 2.91414 65.0031 3.078C65.3141 3.24284 65.5584 3.46655 65.7341 3.7511C65.9107 4.03466 65.998 4.38691 65.998 4.8049C65.998 5.18364 65.893 5.53981 65.6821 5.87047C65.4711 6.20212 65.1738 6.4484 64.7882 6.60931C64.4026 6.77023 63.9238 6.85069 63.3488 6.85069C62.5128 6.85069 61.8701 6.65739 61.4217 6.2708C60.9851 5.89402 60.7202 5.35044 60.626 4.63908L60.6279 4.63613Z" fill="#DB162F"/>
<defs>
<linearGradient id="paint0_linear_18_2719" x1="77.7893" y1="1088.65" x2="2335.55" y2="1088.65" gradientUnits="userSpaceOnUse">
<stop stop-color="#040404"/>
<stop offset="0.14902" stop-color="#282829"/>
<stop offset="0.25098" stop-color="#4D4D4F"/>
<stop offset="0.333333" stop-color="#29292A"/>
<stop offset="0.4" stop-color="#040404"/>
<stop offset="0.478431" stop-color="#020202"/>
<stop offset="0.529412"/>
<stop offset="0.839216" stop-color="#5A5B5D"/>
<stop offset="1"/>
</linearGradient>
<linearGradient id="paint1_linear_18_2719" x1="0.00392014" y1="47.3838" x2="66" y2="47.3838" gradientUnits="userSpaceOnUse">
<stop stop-color="#040404"/>
<stop offset="0.14902" stop-color="#222223"/>
<stop offset="0.25098" stop-color="#414042"/>
<stop offset="0.333333" stop-color="#232223"/>
<stop offset="0.4" stop-color="#040404"/>
<stop offset="0.478431" stop-color="#020202"/>
<stop offset="0.529412"/>
<stop offset="0.839216" stop-color="#414042"/>
<stop offset="1"/>
</linearGradient>
<linearGradient id="paint2_linear_18_2719" x1="77.7893" y1="1088.65" x2="2335.55" y2="1088.65" gradientUnits="userSpaceOnUse">
<stop stop-color="#040404"/>
<stop offset="0.14902" stop-color="#282829"/>
<stop offset="0.25098" stop-color="#4D4D4F"/>
<stop offset="0.333333" stop-color="#29292A"/>
<stop offset="0.4" stop-color="#040404"/>
<stop offset="0.478431" stop-color="#020202"/>
<stop offset="0.529412"/>
<stop offset="0.839216" stop-color="#5A5B5D"/>
<stop offset="1"/>
</linearGradient>
<linearGradient id="paint3_linear_18_2719" x1="21.5491" y1="27.3743" x2="44.1254" y2="27.3743" gradientUnits="userSpaceOnUse">
<stop stop-color="#040404"/>
<stop offset="0.160784" stop-color="#222223"/>
<stop offset="0.270588" stop-color="#414042"/>
<stop offset="0.4" stop-color="#232223"/>
<stop offset="0.501961" stop-color="#040404"/>
<stop offset="0.552941" stop-color="#020202"/>
<stop offset="0.588235"/>
<stop offset="0.788235" stop-color="#414042"/>
<stop offset="1"/>
</linearGradient>
</defs>
</svg>
